solid CATIA STL
  facet normal -8.627298e-01 -4.980977e-01  8.715582e-02
    outer loop
      vertex -2.452937e-01 -6.304372e-01  9.121402e+00
      vertex -4.447457e-01 -1.866018e+00  8.570808e-02
      vertex -2.024751e-01 -7.031201e-01  9.129867e+00
    endloop
  endfacet
  facet normal -8.627300e-01 -4.980971e-01  8.715572e-02
    outer loop
      vertex -2.452937e-01 -6.304372e-01  9.121402e+00
      vertex -5.152346e-01 -1.746268e+00  7.233160e-02
      vertex -4.447457e-01 -1.866018e+00  8.570808e-02
    endloop
  endfacet
  facet normal -8.627303e-01 -4.980968e-01  8.715563e-02
    outer loop
      vertex -3.102649e-02 -9.914777e-01  9.179016e+00
      vertex  4.926246e-02 -2.698422e+00  2.185424e-01
      vertex  1.198289e-01 -2.816351e+00  2.430945e-01
    endloop
  endfacet
  facet normal -8.627297e-01 -4.980977e-01  8.715582e-02
    outer loop
      vertex -3.102649e-02 -9.914777e-01  9.179016e+00
      vertex -7.388620e-02 -9.197924e-01  9.164444e+00
      vertex  4.926246e-02 -2.698422e+00  2.185424e-01
    endloop
  endfacet
  facet normal -8.627298e-01 -4.980976e-01  8.715577e-02
    outer loop
      vertex -4.447457e-01 -1.866018e+00  8.570808e-02
      vertex -3.742189e-01 -1.985587e+00  1.004887e-01
      vertex -2.024751e-01 -7.031201e-01  9.129867e+00
    endloop
  endfacet
  facet normal -8.627298e-01 -4.980974e-01  8.715574e-02
    outer loop
      vertex -1.596250e-01 -7.755892e-01  9.139864e+00
      vertex -2.024751e-01 -7.031201e-01  9.129867e+00
      vertex -3.742189e-01 -1.985587e+00  1.004887e-01
    endloop
  endfacet
  facet normal -8.627300e-01 -4.980972e-01  8.715573e-02
    outer loop
      vertex -1.596250e-01 -7.755892e-01  9.139864e+00
      vertex -3.742189e-01 -1.985587e+00  1.004887e-01
      vertex -2.909419e-01 -2.126459e+00  1.197380e-01
    endloop
  endfacet
  facet normal -8.627299e-01 -4.980975e-01  8.715577e-02
    outer loop
      vertex -2.909419e-01 -2.126459e+00  1.197380e-01
      vertex -2.330935e-01 -2.224116e+00  1.342527e-01
      vertex -1.596250e-01 -7.755892e-01  9.139864e+00
    endloop
  endfacet
  facet normal -8.627298e-01 -4.980974e-01  8.715576e-02
    outer loop
      vertex -1.167566e-01 -8.478225e-01  9.151391e+00
      vertex -1.596250e-01 -7.755892e-01  9.139864e+00
      vertex -2.330935e-01 -2.224116e+00  1.342527e-01
    endloop
  endfacet
  facet normal -8.627300e-01 -4.980972e-01  8.715572e-02
    outer loop
      vertex -1.167566e-01 -8.478225e-01  9.151391e+00
      vertex -2.330935e-01 -2.224116e+00  1.342527e-01
      vertex -1.625034e-01 -2.343060e+00  1.532338e-01
    endloop
  endfacet
  facet normal -8.627297e-01 -4.980976e-01  8.715579e-02
    outer loop
      vertex -1.167566e-01 -8.478225e-01  9.151391e+00
      vertex -1.625034e-01 -2.343060e+00  1.532338e-01
      vertex -9.191138e-02 -2.461764e+00  1.736097e-01
    endloop
  endfacet
  facet normal -8.627306e-01 -4.980962e-01  8.715554e-02
    outer loop
      vertex -1.167566e-01 -8.478225e-01  9.151391e+00
      vertex -9.191138e-02 -2.461764e+00  1.736097e-01
      vertex -7.388620e-02 -9.197924e-01  9.164444e+00
    endloop
  endfacet
  facet normal -8.627297e-01 -4.980976e-01  8.715578e-02
    outer loop
      vertex -7.388620e-02 -9.197924e-01  9.164444e+00
      vertex -9.191138e-02 -2.461764e+00  1.736097e-01
      vertex -2.131942e-02 -2.580223e+00  1.953802e-01
    endloop
  endfacet
  facet normal -8.627300e-01 -4.980973e-01  8.715572e-02
    outer loop
      vertex -7.388620e-02 -9.197924e-01  9.164444e+00
      vertex -2.131942e-02 -2.580223e+00  1.953802e-01
      vertex  4.926246e-02 -2.698422e+00  2.185424e-01
    endloop
  endfacet
  facet normal  8.627303e-01  4.980967e-01 -8.715561e-02
    outer loop
      vertex  2.276701e-01 -2.754089e+00  2.322000e-01
      vertex  1.571037e-01 -2.636160e+00  2.076480e-01
      vertex  7.681475e-02 -9.292155e-01  9.168122e+00
    endloop
  endfacet
  facet normal  8.627299e-01  4.980974e-01 -8.715574e-02
    outer loop
      vertex  1.571037e-01 -2.636160e+00  2.076480e-01
      vertex  2.919202e-02 -8.495474e-01  9.152023e+00
      vertex  7.681475e-02 -9.292155e-01  9.168122e+00
    endloop
  endfacet
  facet normal  8.627297e-01  4.980977e-01 -8.715579e-02
    outer loop
      vertex -6.606925e-02 -6.891967e-01  9.125467e+00
      vertex -2.663777e-01 -1.923325e+00  8.959419e-02
      vertex -1.136699e-01 -6.085780e-01  9.115021e+00
    endloop
  endfacet
  facet normal  8.627300e-01  4.980972e-01 -8.715573e-02
    outer loop
      vertex -6.606925e-02 -6.891967e-01  9.125467e+00
      vertex -1.831006e-01 -2.064197e+00  1.088435e-01
      vertex -2.663777e-01 -1.923325e+00  8.959419e-02
    endloop
  endfacet
  facet normal  8.627297e-01  4.980976e-01 -8.715579e-02
    outer loop
      vertex  1.592986e-02 -2.399502e+00  1.627153e-01
      vertex -5.466220e-02 -2.280798e+00  1.423394e-01
      vertex -1.844275e-02 -7.695297e-01  9.137804e+00
    endloop
  endfacet
  facet normal  8.627298e-01  4.980976e-01 -8.715577e-02
    outer loop
      vertex  2.919202e-02 -8.495474e-01  9.152023e+00
      vertex  1.592986e-02 -2.399502e+00  1.627153e-01
      vertex -1.844275e-02 -7.695297e-01  9.137804e+00
    endloop
  endfacet
  facet normal  8.627300e-01  4.980972e-01 -8.715572e-02
    outer loop
      vertex  8.652182e-02 -2.517961e+00  1.844858e-01
      vertex  1.592986e-02 -2.399502e+00  1.627153e-01
      vertex  2.919202e-02 -8.495474e-01  9.152023e+00
    endloop
  endfacet
  facet normal  8.627297e-01  4.980978e-01 -8.715584e-02
    outer loop
      vertex  1.571037e-01 -2.636160e+00  2.076480e-01
      vertex  8.652182e-02 -2.517961e+00  1.844858e-01
      vertex  2.919202e-02 -8.495474e-01  9.152023e+00
    endloop
  endfacet
  facet normal  8.627301e-01  4.980971e-01 -8.715571e-02
    outer loop
      vertex -2.663777e-01 -1.923325e+00  8.959419e-02
      vertex -3.369044e-01 -1.803756e+00  7.481361e-02
      vertex -1.136699e-01 -6.085780e-01  9.115021e+00
    endloop
  endfacet
  facet normal  8.627298e-01  4.980976e-01 -8.715577e-02
    outer loop
      vertex -1.136699e-01 -6.085780e-01  9.115021e+00
      vertex -3.369044e-01 -1.803756e+00  7.481361e-02
      vertex -4.073934e-01 -1.684006e+00  6.143713e-02
    endloop
  endfacet
  facet normal  8.627307e-01  4.980959e-01 -8.715554e-02
    outer loop
      vertex -1.136699e-01 -6.085780e-01  9.115021e+00
      vertex -4.073934e-01 -1.684006e+00  6.143713e-02
      vertex -1.374525e-01 -5.681750e-01  9.110507e+00
    endloop
  endfacet
  facet normal  8.627300e-01  4.980972e-01 -8.715571e-02
    outer loop
      vertex -5.466220e-02 -2.280798e+00  1.423394e-01
      vertex -1.252523e-01 -2.161854e+00  1.233582e-01
      vertex -1.844275e-02 -7.695297e-01  9.137804e+00
    endloop
  endfacet
  facet normal  8.627299e-01  4.980974e-01 -8.715575e-02
    outer loop
      vertex -1.844275e-02 -7.695297e-01  9.137804e+00
      vertex -1.252523e-01 -2.161854e+00  1.233582e-01
      vertex -1.831006e-01 -2.064197e+00  1.088435e-01
    endloop
  endfacet
  facet normal  8.627301e-01  4.980972e-01 -8.715573e-02
    outer loop
      vertex -1.844275e-02 -7.695297e-01  9.137804e+00
      vertex -1.831006e-01 -2.064197e+00  1.088435e-01
      vertex -6.606925e-02 -6.891967e-01  9.125467e+00
    endloop
  endfacet
  facet normal  5.053949e-01 -8.437266e-01  1.808359e-01
    outer loop
      vertex -3.102649e-02 -9.914777e-01  9.179016e+00
      vertex  1.198289e-01 -2.816351e+00  2.430945e-01
      vertex  7.681475e-02 -9.292155e-01  9.168122e+00
    endloop
  endfacet
  facet normal  5.053949e-01 -8.437265e-01  1.808359e-01
    outer loop
      vertex  7.681475e-02 -9.292155e-01  9.168122e+00
      vertex  1.198289e-01 -2.816351e+00  2.430945e-01
      vertex  2.276701e-01 -2.754089e+00  2.322000e-01
    endloop
  endfacet
  facet normal  1.397607e-02 -1.957810e-01 -9.805481e-01
    outer loop
      vertex  2.276701e-01 -2.754089e+00  2.322000e-01
      vertex  1.198289e-01 -2.816351e+00  2.430945e-01
      vertex  1.571037e-01 -2.636160e+00  2.076480e-01
    endloop
  endfacet
  facet normal  1.397607e-02 -1.957810e-01 -9.805480e-01
    outer loop
      vertex  1.571037e-01 -2.636160e+00  2.076480e-01
      vertex  1.198289e-01 -2.816351e+00  2.430945e-01
      vertex  4.926246e-02 -2.698422e+00  2.185424e-01
    endloop
  endfacet
  facet normal  8.849099e-03 -1.872041e-01 -9.822812e-01
    outer loop
      vertex  1.571037e-01 -2.636160e+00  2.076480e-01
      vertex  4.926246e-02 -2.698422e+00  2.185424e-01
      vertex  8.652182e-02 -2.517961e+00  1.844858e-01
    endloop
  endfacet
  facet normal  8.848800e-03 -1.872040e-01 -9.822812e-01
    outer loop
      vertex  8.652182e-02 -2.517961e+00  1.844858e-01
      vertex  4.926246e-02 -2.698422e+00  2.185424e-01
      vertex -2.131942e-02 -2.580223e+00  1.953802e-01
    endloop
  endfacet
  facet normal  3.720135e-03 -1.786065e-01 -9.839135e-01
    outer loop
      vertex  8.652182e-02 -2.517961e+00  1.844858e-01
      vertex -2.131942e-02 -2.580223e+00  1.953802e-01
      vertex  1.592986e-02 -2.399502e+00  1.627153e-01
    endloop
  endfacet
  facet normal  3.720602e-03 -1.786066e-01 -9.839135e-01
    outer loop
      vertex  1.592986e-02 -2.399502e+00  1.627153e-01
      vertex -2.131942e-02 -2.580223e+00  1.953802e-01
      vertex -9.191138e-02 -2.461764e+00  1.736097e-01
    endloop
  endfacet
  facet normal -1.407574e-03 -1.699922e-01 -9.854444e-01
    outer loop
      vertex  1.592986e-02 -2.399502e+00  1.627153e-01
      vertex -9.191138e-02 -2.461764e+00  1.736097e-01
      vertex -5.466220e-02 -2.280798e+00  1.423394e-01
    endloop
  endfacet
  facet normal -1.407669e-03 -1.699922e-01 -9.854444e-01
    outer loop
      vertex -5.466220e-02 -2.280798e+00  1.423394e-01
      vertex -9.191138e-02 -2.461764e+00  1.736097e-01
      vertex -1.625034e-01 -2.343060e+00  1.532338e-01
    endloop
  endfacet
  facet normal -6.534038e-03 -1.613631e-01 -9.868735e-01
    outer loop
      vertex -5.466220e-02 -2.280798e+00  1.423394e-01
      vertex -1.625034e-01 -2.343060e+00  1.532338e-01
      vertex -1.252523e-01 -2.161854e+00  1.233582e-01
    endloop
  endfacet
  facet normal -6.534133e-03 -1.613631e-01 -9.868735e-01
    outer loop
      vertex -1.252523e-01 -2.161854e+00  1.233582e-01
      vertex -1.625034e-01 -2.343060e+00  1.532338e-01
      vertex -2.330935e-01 -2.224116e+00  1.342527e-01
    endloop
  endfacet
  facet normal -1.119974e-02 -1.534942e-01 -9.880861e-01
    outer loop
      vertex -1.252523e-01 -2.161854e+00  1.233582e-01
      vertex -2.330935e-01 -2.224116e+00  1.342527e-01
      vertex -1.831006e-01 -2.064197e+00  1.088435e-01
    endloop
  endfacet
  facet normal -1.119974e-02 -1.534942e-01 -9.880861e-01
    outer loop
      vertex -1.831006e-01 -2.064197e+00  1.088435e-01
      vertex -2.330935e-01 -2.224116e+00  1.342527e-01
      vertex -2.909419e-01 -2.126459e+00  1.197380e-01
    endloop
  endfacet
  facet normal -1.632407e-02 -1.448347e-01 -9.893212e-01
    outer loop
      vertex -1.831006e-01 -2.064197e+00  1.088435e-01
      vertex -2.909419e-01 -2.126459e+00  1.197380e-01
      vertex -2.663777e-01 -1.923325e+00  8.959419e-02
    endloop
  endfacet
  facet normal -1.632407e-02 -1.448347e-01 -9.893212e-01
    outer loop
      vertex -2.663777e-01 -1.923325e+00  8.959419e-02
      vertex -2.909419e-01 -2.126459e+00  1.197380e-01
      vertex -3.742189e-01 -1.985587e+00  1.004887e-01
    endloop
  endfacet
  facet normal -2.191207e-02 -1.353715e-01 -9.905526e-01
    outer loop
      vertex -2.663777e-01 -1.923325e+00  8.959419e-02
      vertex -3.742189e-01 -1.985587e+00  1.004887e-01
      vertex -3.369044e-01 -1.803756e+00  7.481361e-02
    endloop
  endfacet
  facet normal -2.191185e-02 -1.353715e-01 -9.905525e-01
    outer loop
      vertex -3.369044e-01 -1.803756e+00  7.481361e-02
      vertex -3.742189e-01 -1.985587e+00  1.004887e-01
      vertex -4.447457e-01 -1.866018e+00  8.570808e-02
    endloop
  endfacet
  facet normal -2.703531e-02 -1.266765e-01 -9.915757e-01
    outer loop
      vertex -3.369044e-01 -1.803756e+00  7.481361e-02
      vertex -4.447457e-01 -1.866018e+00  8.570808e-02
      vertex -4.073934e-01 -1.684006e+00  6.143713e-02
    endloop
  endfacet
  facet normal -2.703550e-02 -1.266764e-01 -9.915756e-01
    outer loop
      vertex -4.073934e-01 -1.684006e+00  6.143713e-02
      vertex -4.447457e-01 -1.866018e+00  8.570808e-02
      vertex -5.152346e-01 -1.746268e+00  7.233160e-02
    endloop
  endfacet
  facet normal  1.694788e-02  1.464687e-01  9.890702e-01
    outer loop
      vertex -2.024751e-01 -7.031201e-01  9.129867e+00
      vertex -1.596250e-01 -7.755892e-01  9.139864e+00
      vertex -6.606925e-02 -6.891967e-01  9.125467e+00
    endloop
  endfacet
  facet normal  4.158932e-03  1.599913e-01  9.871096e-01
    outer loop
      vertex -6.606925e-02 -6.891967e-01  9.125467e+00
      vertex -1.596250e-01 -7.755892e-01  9.139864e+00
      vertex -1.167566e-01 -8.478225e-01  9.151391e+00
    endloop
  endfacet
  facet normal  1.067442e-02  1.579550e-01  9.873887e-01
    outer loop
      vertex -6.606925e-02 -6.891967e-01  9.125467e+00
      vertex -1.167566e-01 -8.478225e-01  9.151391e+00
      vertex -1.844275e-02 -7.695297e-01  9.137804e+00
    endloop
  endfacet
  facet normal -4.152230e-03  1.760497e-01  9.843726e-01
    outer loop
      vertex -1.844275e-02 -7.695297e-01  9.137804e+00
      vertex -1.167566e-01 -8.478225e-01  9.151391e+00
      vertex -7.388620e-02 -9.197924e-01  9.164444e+00
    endloop
  endfacet
  facet normal -4.251512e-04  1.747181e-01  9.846185e-01
    outer loop
      vertex -1.844275e-02 -7.695297e-01  9.137804e+00
      vertex -7.388620e-02 -9.197924e-01  9.164444e+00
      vertex  2.919202e-02 -8.495474e-01  9.152023e+00
    endloop
  endfacet
  facet normal -1.257909e-02  1.919697e-01  9.813203e-01
    outer loop
      vertex  2.919202e-02 -8.495474e-01  9.152023e+00
      vertex -7.388620e-02 -9.197924e-01  9.164444e+00
      vertex -3.102649e-02 -9.914777e-01  9.179016e+00
    endloop
  endfacet
  facet normal -1.141357e-02  1.914955e-01  9.814271e-01
    outer loop
      vertex  2.919202e-02 -8.495474e-01  9.152023e+00
      vertex -3.102649e-02 -9.914777e-01  9.179016e+00
      vertex  7.681475e-02 -9.292155e-01  9.168122e+00
    endloop
  endfacet
  facet normal  1.776599e-02  1.387985e-01  9.901612e-01
    outer loop
      vertex -6.606925e-02 -6.891967e-01  9.125467e+00
      vertex -1.136699e-01 -6.085780e-01  9.115021e+00
      vertex -2.024751e-01 -7.031201e-01  9.129867e+00
    endloop
  endfacet
  facet normal  2.940539e-02  1.280492e-01  9.913318e-01
    outer loop
      vertex -2.024751e-01 -7.031201e-01  9.129867e+00
      vertex -1.136699e-01 -6.085780e-01  9.115021e+00
      vertex -1.374525e-01 -5.681750e-01  9.110507e+00
    endloop
  endfacet
  facet normal  2.498533e-02  1.301570e-01  9.911785e-01
    outer loop
      vertex -2.024751e-01 -7.031201e-01  9.129867e+00
      vertex -1.374525e-01 -5.681750e-01  9.110507e+00
      vertex -2.452937e-01 -6.304372e-01  9.121402e+00
    endloop
  endfacet
  facet normal -8.627299e-01 -4.980975e-01  8.715575e-02
    outer loop
      vertex -2.452937e-01 -6.304372e-01  9.121402e+00
      vertex -5.856853e-01 -1.626339e+00  6.035822e-02
      vertex -5.152346e-01 -1.746268e+00  7.233160e-02
    endloop
  endfacet
  facet normal -8.627298e-01 -4.980974e-01  8.715574e-02
    outer loop
      vertex -2.452937e-01 -6.304372e-01  9.121402e+00
      vertex -2.928162e-01 -5.494565e-01  9.113797e+00
      vertex -5.856853e-01 -1.626339e+00  6.035822e-02
    endloop
  endfacet
  facet normal -8.627300e-01 -4.980972e-01  8.715573e-02
    outer loop
      vertex -4.348492e-01 -3.054457e-01  9.102382e+00
      vertex -1.007101e+00 -9.038247e-01  1.807224e-02
      vertex -3.876128e-01 -3.869284e-01  9.104285e+00
    endloop
  endfacet
  facet normal -8.627299e-01 -4.980973e-01  8.715574e-02
    outer loop
      vertex -1.007101e+00 -9.038247e-01  1.807224e-02
      vertex -9.244156e-01 -1.046285e+00  2.238383e-02
      vertex -3.876128e-01 -3.869284e-01  9.104285e+00
    endloop
  endfacet
  facet normal -8.627295e-01 -4.980980e-01  8.715578e-02
    outer loop
      vertex -3.402627e-01 -4.682754e-01  9.108090e+00
      vertex -7.967117e-01 -1.265639e+00  3.287782e-02
      vertex -7.264314e-01 -1.386011e+00  4.063033e-02
    endloop
  endfacet
  facet normal -8.627300e-01 -4.980972e-01  8.715572e-02
    outer loop
      vertex -3.402627e-01 -4.682754e-01  9.108090e+00
      vertex -7.264314e-01 -1.386011e+00  4.063033e-02
      vertex -2.928162e-01 -5.494565e-01  9.113797e+00
    endloop
  endfacet
  facet normal -8.627302e-01 -4.980969e-01  8.715570e-02
    outer loop
      vertex -2.928162e-01 -5.494565e-01  9.113797e+00
      vertex -7.264314e-01 -1.386011e+00  4.063033e-02
      vertex -6.560860e-01 -1.506251e+00  4.979082e-02
    endloop
  endfacet
  facet normal -8.627300e-01 -4.980972e-01  8.715573e-02
    outer loop
      vertex -2.928162e-01 -5.494565e-01  9.113797e+00
      vertex -6.560860e-01 -1.506251e+00  4.979082e-02
      vertex -5.856853e-01 -1.626339e+00  6.035822e-02
    endloop
  endfacet
  facet normal -8.627288e-01 -4.980991e-01  8.715570e-02
    outer loop
      vertex -4.584168e-01 -2.646670e-01  9.102144e+00
      vertex -1.146907e+00 -6.621670e-01  1.525225e-02
      vertex -4.348492e-01 -3.054457e-01  9.102382e+00
    endloop
  endfacet
  facet normal -8.627299e-01 -4.980974e-01  8.715576e-02
    outer loop
      vertex -4.348492e-01 -3.054457e-01  9.102382e+00
      vertex -1.146907e+00 -6.621670e-01  1.525225e-02
      vertex -1.077055e+00 -7.830302e-01  1.595689e-02
    endloop
  endfacet
  facet normal -8.627300e-01 -4.980973e-01  8.715574e-02
    outer loop
      vertex -4.348492e-01 -3.054457e-01  9.102382e+00
      vertex -1.077055e+00 -7.830302e-01  1.595689e-02
      vertex -1.007101e+00 -9.038247e-01  1.807224e-02
    endloop
  endfacet
  facet normal -8.627301e-01 -4.980972e-01  8.715573e-02
    outer loop
      vertex -3.876128e-01 -3.869284e-01  9.104285e+00
      vertex -9.244156e-01 -1.046285e+00  2.238383e-02
      vertex -3.402627e-01 -4.682754e-01  9.108090e+00
    endloop
  endfacet
  facet normal -8.627300e-01 -4.980972e-01  8.715574e-02
    outer loop
      vertex -3.402627e-01 -4.682754e-01  9.108090e+00
      vertex -9.244156e-01 -1.046285e+00  2.238383e-02
      vertex -8.669249e-01 -1.145136e+00  2.653309e-02
    endloop
  endfacet
  facet normal -8.627300e-01 -4.980972e-01  8.715574e-02
    outer loop
      vertex -3.402627e-01 -4.682754e-01  9.108090e+00
      vertex -8.669249e-01 -1.145136e+00  2.653309e-02
      vertex -7.967117e-01 -1.265639e+00  3.287782e-02
    endloop
  endfacet
  facet normal  8.627297e-01  4.980977e-01 -8.715577e-02
    outer loop
      vertex -4.073934e-01 -1.684006e+00  6.143713e-02
      vertex -4.778440e-01 -1.564077e+00  4.946375e-02
      vertex -1.374525e-01 -5.681750e-01  9.110507e+00
    endloop
  endfacet
  facet normal  8.627297e-01  4.980978e-01 -8.715578e-02
    outer loop
      vertex -4.778440e-01 -1.564077e+00  4.946375e-02
      vertex -1.849750e-01 -4.871944e-01  9.102902e+00
      vertex -1.374525e-01 -5.681750e-01  9.110507e+00
    endloop
  endfacet
  facet normal  8.627300e-01  4.980972e-01 -8.715573e-02
    outer loop
      vertex -2.797716e-01 -3.246662e-01  9.093390e+00
      vertex -8.992597e-01 -8.415625e-01  7.177772e-03
      vertex -3.270079e-01 -2.431835e-01  9.091487e+00
    endloop
  endfacet
  facet normal  8.627299e-01  4.980973e-01 -8.715574e-02
    outer loop
      vertex -2.797716e-01 -3.246662e-01  9.093390e+00
      vertex -8.165744e-01 -9.840232e-01  1.148936e-02
      vertex -8.992597e-01 -8.415625e-01  7.177772e-03
    endloop
  endfacet
  facet normal  8.627300e-01  4.980974e-01 -8.715576e-02
    outer loop
      vertex -6.185902e-01 -1.323749e+00  2.973586e-02
      vertex -6.888705e-01 -1.203377e+00  2.198335e-02
      vertex -2.324214e-01 -4.060132e-01  9.097197e+00
    endloop
  endfacet
  facet normal  8.627298e-01  4.980975e-01 -8.715574e-02
    outer loop
      vertex -1.849750e-01 -4.871944e-01  9.102902e+00
      vertex -6.185902e-01 -1.323749e+00  2.973586e-02
      vertex -2.324214e-01 -4.060132e-01  9.097197e+00
    endloop
  endfacet
  facet normal  8.627300e-01  4.980973e-01 -8.715573e-02
    outer loop
      vertex -5.482447e-01 -1.443988e+00  3.889635e-02
      vertex -6.185902e-01 -1.323749e+00  2.973586e-02
      vertex -1.849750e-01 -4.871944e-01  9.102902e+00
    endloop
  endfacet
  facet normal  8.627301e-01  4.980970e-01 -8.715571e-02
    outer loop
      vertex -4.778440e-01 -1.564077e+00  4.946375e-02
      vertex -5.482447e-01 -1.443988e+00  3.889635e-02
      vertex -1.849750e-01 -4.871944e-01  9.102902e+00
    endloop
  endfacet
  facet normal  8.627300e-01  4.980973e-01 -8.715574e-02
    outer loop
      vertex -8.992597e-01 -8.415625e-01  7.177772e-03
      vertex -9.692141e-01 -7.207680e-01  5.062421e-03
      vertex -3.270079e-01 -2.431835e-01  9.091487e+00
    endloop
  endfacet
  facet normal  8.627300e-01  4.980972e-01 -8.715577e-02
    outer loop
      vertex -3.270079e-01 -2.431835e-01  9.091487e+00
      vertex -9.692141e-01 -7.207680e-01  5.062421e-03
      vertex -1.039066e+00 -5.999048e-01  4.357787e-03
    endloop
  endfacet
  facet normal  8.627297e-01  4.980978e-01 -8.715573e-02
    outer loop
      vertex -3.270079e-01 -2.431835e-01  9.091487e+00
      vertex -1.039066e+00 -5.999048e-01  4.357787e-03
      vertex -3.505755e-01 -2.024049e-01  9.091249e+00
    endloop
  endfacet
  facet normal  8.627299e-01  4.980974e-01 -8.715575e-02
    outer loop
      vertex -6.888705e-01 -1.203377e+00  2.198335e-02
      vertex -7.590836e-01 -1.082874e+00  1.563862e-02
      vertex -2.324214e-01 -4.060132e-01  9.097197e+00
    endloop
  endfacet
  facet normal  8.627300e-01  4.980972e-01 -8.715574e-02
    outer loop
      vertex -2.324214e-01 -4.060132e-01  9.097197e+00
      vertex -7.590836e-01 -1.082874e+00  1.563862e-02
      vertex -8.165744e-01 -9.840232e-01  1.148936e-02
    endloop
  endfacet
  facet normal  8.627298e-01  4.980975e-01 -8.715574e-02
    outer loop
      vertex -2.324214e-01 -4.060132e-01  9.097197e+00
      vertex -8.165744e-01 -9.840232e-01  1.148936e-02
      vertex -2.797716e-01 -3.246662e-01  9.093390e+00
    endloop
  endfacet
  facet normal -5.000001e-01  8.660254e-01  5.185750e-09
    outer loop
      vertex -4.584168e-01 -2.646670e-01  9.102144e+00
      vertex -3.505755e-01 -2.024049e-01  9.091249e+00
      vertex -1.146907e+00 -6.621670e-01  1.525225e-02
    endloop
  endfacet
  facet normal -4.999999e-01  8.660255e-01 -1.037150e-08
    outer loop
      vertex -1.146907e+00 -6.621670e-01  1.525225e-02
      vertex -3.505755e-01 -2.024049e-01  9.091249e+00
      vertex -1.039066e+00 -5.999048e-01  4.357787e-03
    endloop
  endfacet
  facet normal  4.493526e-02  9.615792e-02  9.943513e-01
    outer loop
      vertex -2.324214e-01 -4.060132e-01  9.097197e+00
      vertex -2.928162e-01 -5.494565e-01  9.113797e+00
      vertex -1.849750e-01 -4.871944e-01  9.102902e+00
    endloop
  endfacet
  facet normal  3.471234e-02  1.136138e-01  9.929184e-01
    outer loop
      vertex -1.849750e-01 -4.871944e-01  9.102902e+00
      vertex -2.928162e-01 -5.494565e-01  9.113797e+00
      vertex -2.452937e-01 -6.304372e-01  9.121402e+00
    endloop
  endfacet
  facet normal  3.471227e-02  1.136139e-01  9.929183e-01
    outer loop
      vertex -1.849750e-01 -4.871944e-01  9.102902e+00
      vertex -2.452937e-01 -6.304372e-01  9.121402e+00
      vertex -1.374525e-01 -5.681750e-01  9.110507e+00
    endloop
  endfacet
  facet normal  4.493526e-02  9.615791e-02  9.943513e-01
    outer loop
      vertex -2.928162e-01 -5.494565e-01  9.113797e+00
      vertex -2.324214e-01 -4.060132e-01  9.097197e+00
      vertex -3.402627e-01 -4.682754e-01  9.108090e+00
    endloop
  endfacet
  facet normal  5.513969e-02  7.866251e-02  9.953752e-01
    outer loop
      vertex -3.402627e-01 -4.682754e-01  9.108090e+00
      vertex -2.324214e-01 -4.060132e-01  9.097197e+00
      vertex -2.797716e-01 -3.246662e-01  9.093390e+00
    endloop
  endfacet
  facet normal  5.513969e-02  7.866250e-02  9.953752e-01
    outer loop
      vertex -3.402627e-01 -4.682754e-01  9.108090e+00
      vertex -2.797716e-01 -3.246662e-01  9.093390e+00
      vertex -3.876128e-01 -3.869284e-01  9.104285e+00
    endloop
  endfacet
  facet normal  6.532020e-02  6.113686e-02  9.959897e-01
    outer loop
      vertex -3.876128e-01 -3.869284e-01  9.104285e+00
      vertex -2.797716e-01 -3.246662e-01  9.093390e+00
      vertex -3.270079e-01 -2.431835e-01  9.091487e+00
    endloop
  endfacet
  facet normal  6.532020e-02  6.113686e-02  9.959897e-01
    outer loop
      vertex -3.876128e-01 -3.869284e-01  9.104285e+00
      vertex -3.270079e-01 -2.431835e-01  9.091487e+00
      vertex -4.348492e-01 -3.054457e-01  9.102382e+00
    endloop
  endfacet
  facet normal  7.294906e-02  4.795697e-02  9.961820e-01
    outer loop
      vertex -4.348492e-01 -3.054457e-01  9.102382e+00
      vertex -3.270079e-01 -2.431835e-01  9.091487e+00
      vertex -3.505755e-01 -2.024049e-01  9.091249e+00
    endloop
  endfacet
  facet normal  7.294906e-02  4.795697e-02  9.961820e-01
    outer loop
      vertex -4.348492e-01 -3.054457e-01  9.102382e+00
      vertex -3.505755e-01 -2.024049e-01  9.091249e+00
      vertex -4.584168e-01 -2.646670e-01  9.102144e+00
    endloop
  endfacet
  facet normal -3.215200e-02 -1.179754e-01 -9.924959e-01
    outer loop
      vertex -4.073934e-01 -1.684006e+00  6.143713e-02
      vertex -5.152346e-01 -1.746268e+00  7.233160e-02
      vertex -4.778440e-01 -1.564077e+00  4.946375e-02
    endloop
  endfacet
  facet normal -3.215196e-02 -1.179754e-01 -9.924959e-01
    outer loop
      vertex -4.778440e-01 -1.564077e+00  4.946375e-02
      vertex -5.152346e-01 -1.746268e+00  7.233160e-02
      vertex -5.856853e-01 -1.626339e+00  6.035822e-02
    endloop
  endfacet
  facet normal -3.726846e-02 -1.092567e-01 -9.933147e-01
    outer loop
      vertex -4.778440e-01 -1.564077e+00  4.946375e-02
      vertex -5.856853e-01 -1.626339e+00  6.035822e-02
      vertex -5.482447e-01 -1.443988e+00  3.889635e-02
    endloop
  endfacet
  facet normal -3.726847e-02 -1.092567e-01 -9.933147e-01
    outer loop
      vertex -5.482447e-01 -1.443988e+00  3.889635e-02
      vertex -5.856853e-01 -1.626339e+00  6.035822e-02
      vertex -6.560860e-01 -1.506251e+00  4.979082e-02
    endloop
  endfacet
  facet normal -4.238151e-02 -1.005260e-01 -9.940313e-01
    outer loop
      vertex -5.482447e-01 -1.443988e+00  3.889635e-02
      vertex -6.560860e-01 -1.506251e+00  4.979082e-02
      vertex -6.185902e-01 -1.323749e+00  2.973586e-02
    endloop
  endfacet
  facet normal -4.238154e-02 -1.005260e-01 -9.940313e-01
    outer loop
      vertex -6.185902e-01 -1.323749e+00  2.973586e-02
      vertex -6.560860e-01 -1.506251e+00  4.979082e-02
      vertex -7.264314e-01 -1.386011e+00  4.063033e-02
    endloop
  endfacet
  facet normal -4.748939e-02 -9.178647e-02 -9.946457e-01
    outer loop
      vertex -6.185902e-01 -1.323749e+00  2.973586e-02
      vertex -7.264314e-01 -1.386011e+00  4.063033e-02
      vertex -6.888705e-01 -1.203377e+00  2.198335e-02
    endloop
  endfacet
  facet normal -4.748925e-02 -9.178650e-02 -9.946457e-01
    outer loop
      vertex -6.888705e-01 -1.203377e+00  2.198335e-02
      vertex -7.264314e-01 -1.386011e+00  4.063033e-02
      vertex -7.967117e-01 -1.265639e+00  3.287782e-02
    endloop
  endfacet
  facet normal -5.259060e-02 -8.304026e-02 -9.951576e-01
    outer loop
      vertex -6.888705e-01 -1.203377e+00  2.198335e-02
      vertex -7.967117e-01 -1.265639e+00  3.287782e-02
      vertex -7.590836e-01 -1.082874e+00  1.563862e-02
    endloop
  endfacet
  facet normal -5.259070e-02 -8.304024e-02 -9.951576e-01
    outer loop
      vertex -7.590836e-01 -1.082874e+00  1.563862e-02
      vertex -7.967117e-01 -1.265639e+00  3.287782e-02
      vertex -8.669249e-01 -1.145136e+00  2.653309e-02
    endloop
  endfacet
  facet normal -5.722949e-02 -7.507159e-02 -9.955346e-01
    outer loop
      vertex -7.590836e-01 -1.082874e+00  1.563862e-02
      vertex -8.669249e-01 -1.145136e+00  2.653309e-02
      vertex -8.165744e-01 -9.840232e-01  1.148936e-02
    endloop
  endfacet
  facet normal -5.722948e-02 -7.507160e-02 -9.955346e-01
    outer loop
      vertex -8.165744e-01 -9.840232e-01  1.148936e-02
      vertex -8.669249e-01 -1.145136e+00  2.653309e-02
      vertex -9.244156e-01 -1.046285e+00  2.238383e-02
    endloop
  endfacet
  facet normal -6.231971e-02 -6.631041e-02 -9.958509e-01
    outer loop
      vertex -8.165744e-01 -9.840232e-01  1.148936e-02
      vertex -9.244156e-01 -1.046285e+00  2.238383e-02
      vertex -8.992597e-01 -8.415625e-01  7.177772e-03
    endloop
  endfacet
  facet normal -6.231973e-02 -6.631041e-02 -9.958509e-01
    outer loop
      vertex -8.992597e-01 -8.415625e-01  7.177772e-03
      vertex -9.244156e-01 -1.046285e+00  2.238383e-02
      vertex -1.007101e+00 -9.038247e-01  1.807224e-02
    endloop
  endfacet
  facet normal -6.786519e-02 -5.674536e-02 -9.960794e-01
    outer loop
      vertex -8.992597e-01 -8.415625e-01  7.177772e-03
      vertex -1.007101e+00 -9.038247e-01  1.807224e-02
      vertex -9.692141e-01 -7.207680e-01  5.062421e-03
    endloop
  endfacet
  facet normal -6.786519e-02 -5.674536e-02 -9.960794e-01
    outer loop
      vertex -9.692141e-01 -7.207680e-01  5.062421e-03
      vertex -1.007101e+00 -9.038247e-01  1.807224e-02
      vertex -1.077055e+00 -7.830302e-01  1.595689e-02
    endloop
  endfacet
  facet normal -7.294468e-02 -4.796536e-02 -9.961819e-01
    outer loop
      vertex -9.692141e-01 -7.207680e-01  5.062421e-03
      vertex -1.077055e+00 -7.830302e-01  1.595689e-02
      vertex -1.039066e+00 -5.999048e-01  4.357787e-03
    endloop
  endfacet
  facet normal -7.294466e-02 -4.796536e-02 -9.961819e-01
    outer loop
      vertex -1.039066e+00 -5.999048e-01  4.357787e-03
      vertex -1.077055e+00 -7.830302e-01  1.595689e-02
      vertex -1.146907e+00 -6.621670e-01  1.525225e-02
    endloop
  endfacet
endsolid CATIA STL
