M48
; DRILL file {KiCad 8.0.0} date 2024-10-27T16:20:46-0700
; FORMAT={-:-/ absolute / inch / decimal}
; #@! TF.CreationDate,2024-10-27T16:20:46-07:00
; #@! TF.GenerationSoftware,Kicad,Pcbnew,8.0.0
; #@! TF.FileFunction,Plated,1,2,PTH
FMAT,2
INCH
; #@! TA.AperFunction,Plated,PTH,ViaDrill
T1C0.0197
; #@! TA.AperFunction,Plated,PTH,ComponentDrill
T2C0.0394
; #@! TA.AperFunction,Plated,PTH,ComponentDrill
T3C0.0866
; #@! TA.AperFunction,Plated,PTH,ComponentDrill
T4C0.1260
%
G90
G05
T1
X5.7575Y-2.5394
X5.8465Y-2.4902
X6.1811Y-2.0984
X8.2283Y-2.3425
X8.4583Y-2.418
X8.4744Y-2.5394
X8.4941Y-2.3425
T2
X4.653Y-2.499
X4.7526Y-2.4903
X4.8392Y-2.5068
X4.929Y-2.769
X4.9392Y-2.5068
X5.029Y-2.769
X5.0392Y-2.5068
X5.129Y-2.769
X5.1392Y-2.5068
X5.229Y-2.769
X5.2392Y-2.5068
X5.5512Y-2.1317
X5.5512Y-2.2317
X5.7087Y-2.1352
X5.7087Y-2.2352
X5.8623Y-2.179
X5.9858Y-2.6012
X5.9868Y-2.8822
X5.9961Y-2.179
X6.0858Y-2.6012
X6.0868Y-2.8822
X6.13Y-2.179
X6.2639Y-2.179
X6.582Y-2.135
X6.582Y-2.235
X7.5591Y-2.137
X7.5591Y-2.237
X7.563Y-2.4278
X7.563Y-2.5278
X8.01Y-2.4308
X8.01Y-2.5308
X8.351Y-2.1358
X8.351Y-2.2358
X8.7314Y-2.1356
X8.7334Y-2.282
X8.8314Y-2.1356
X8.8334Y-2.282
X8.9314Y-2.1356
X8.9334Y-2.282
X9.0314Y-2.1356
X9.0334Y-2.282
T3
X3.833Y-2.404
X4.75Y-2.9354
X6.4173Y-2.169
X7.4213Y-2.17
T4
X3.488Y-2.973
X4.45Y-2.405
X5.234Y-3.026
X5.462Y-2.979
X5.464Y-2.357
X6.476Y-2.46
X6.478Y-3.01
X7.244Y-2.359
X7.252Y-2.995
M30
