%TF.GenerationSoftware,KiCad,Pcbnew,8.0.0*%
%TF.CreationDate,2024-10-27T16:20:46-07:00*%
%TF.ProjectId,sled,736c6564-2e6b-4696-9361-645f70636258,rev?*%
%TF.SameCoordinates,Original*%
%TF.FileFunction,Copper,L2,Bot*%
%TF.FilePolarity,Positive*%
%FSLAX46Y46*%
G04 Gerber Fmt 4.6, Leading zero omitted, Abs format (unit mm)*
G04 Created by KiCad (PCBNEW 8.0.0) date 2024-10-27 16:20:46*
%MOMM*%
%LPD*%
G01*
G04 APERTURE LIST*
G04 Aperture macros list*
%AMHorizOval*
0 Thick line with rounded ends*
0 $1 width*
0 $2 $3 position (X,Y) of the first rounded end (center of the circle)*
0 $4 $5 position (X,Y) of the second rounded end (center of the circle)*
0 Add line between two ends*
20,1,$1,$2,$3,$4,$5,0*
0 Add two circle primitives to create the rounded ends*
1,1,$1,$2,$3*
1,1,$1,$4,$5*%
%AMRotRect*
0 Rectangle, with rotation*
0 The origin of the aperture is its center*
0 $1 length*
0 $2 width*
0 $3 Rotation angle, in degrees counterclockwise*
0 Add horizontal line*
21,1,$1,$2,0,0,$3*%
G04 Aperture macros list end*
%TA.AperFunction,ComponentPad*%
%ADD10R,1.700000X1.700000*%
%TD*%
%TA.AperFunction,ComponentPad*%
%ADD11O,1.700000X1.700000*%
%TD*%
%TA.AperFunction,ComponentPad*%
%ADD12C,3.400000*%
%TD*%
%TA.AperFunction,ComponentPad*%
%ADD13C,2.500000*%
%TD*%
%TA.AperFunction,ComponentPad*%
%ADD14RotRect,1.700000X1.700000X95.000000*%
%TD*%
%TA.AperFunction,ComponentPad*%
%ADD15HorizOval,1.700000X0.000000X0.000000X0.000000X0.000000X0*%
%TD*%
%TA.AperFunction,ViaPad*%
%ADD16C,1.000000*%
%TD*%
%TA.AperFunction,Conductor*%
%ADD17C,1.000000*%
%TD*%
G04 APERTURE END LIST*
D10*
%TO.P,SW1,1,A*%
%TO.N,Net-(BT2-+)*%
X221828200Y-57962800D03*
D11*
%TO.P,SW1,2,B*%
%TO.N,Net-(J7-Pin_1)*%
X224368200Y-57962800D03*
%TO.P,SW1,3,A*%
%TO.N,Net-(J4-Pin_2)*%
X226908200Y-57962800D03*
%TO.P,SW1,4,B*%
%TO.N,Net-(J4-Pin_1)*%
X229448200Y-57962800D03*
%TD*%
D10*
%TO.P,J11,1,Pin_1*%
%TO.N,Net-(BT3-+)*%
X152064800Y-73207800D03*
D11*
%TO.P,J11,2,Pin_2*%
%TO.N,Net-(BT3--)*%
X154604800Y-73207800D03*
%TD*%
D12*
%TO.P,H7,1*%
%TO.N,N/C*%
X132943600Y-76860400D03*
%TD*%
D10*
%TO.P,J2,1,Pin_1*%
%TO.N,Net-(J10-Pin_1)*%
X125196600Y-70332600D03*
D11*
%TO.P,J2,2,Pin_2*%
%TO.N,Net-(J10-Pin_2)*%
X127736600Y-70332600D03*
%TO.P,J2,3,Pin_3*%
%TO.N,Net-(J2-Pin_3)*%
X130276600Y-70332600D03*
%TO.P,J2,4,Pin_4*%
%TO.N,Net-(J2-Pin_4)*%
X132816600Y-70332600D03*
%TD*%
D10*
%TO.P,J1,1,Pin_1*%
%TO.N,Net-(J1-Pin_1)*%
X122915600Y-63672800D03*
D11*
%TO.P,J1,2,Pin_2*%
%TO.N,unconnected-(J1-Pin_2-Pad2)*%
X125455600Y-63672800D03*
%TO.P,J1,3,Pin_3*%
%TO.N,unconnected-(J1-Pin_3-Pad3)*%
X127995600Y-63672800D03*
%TO.P,J1,4,Pin_4*%
%TO.N,unconnected-(J1-Pin_4-Pad4)*%
X130535600Y-63672800D03*
%TO.P,J1,5,Pin_5*%
%TO.N,Net-(J1-Pin_5)*%
X133075600Y-63672800D03*
%TD*%
D10*
%TO.P,J10,1,Pin_1*%
%TO.N,Net-(J10-Pin_1)*%
X212115400Y-54249400D03*
D11*
%TO.P,J10,2,Pin_2*%
%TO.N,Net-(J10-Pin_2)*%
X212115400Y-56789400D03*
%TD*%
D10*
%TO.P,J5,1,Pin_1*%
%TO.N,Net-(J5-Pin_1)*%
X152039400Y-66070400D03*
D11*
%TO.P,J5,2,Pin_2*%
%TO.N,Net-(J5-Pin_2)*%
X154579400Y-66070400D03*
%TD*%
D13*
%TO.P,H1,1*%
%TO.N,N/C*%
X97358200Y-61061600D03*
%TD*%
D12*
%TO.P,H10,1*%
%TO.N,N/C*%
X138734800Y-75666600D03*
%TD*%
D10*
%TO.P,BT3,1,+*%
%TO.N,Net-(BT3-+)*%
X141000000Y-56686200D03*
D11*
%TO.P,BT3,2,-*%
%TO.N,Net-(BT3--)*%
X141000000Y-54146200D03*
%TD*%
D10*
%TO.P,J4,1,Pin_1*%
%TO.N,Net-(J4-Pin_1)*%
X148902000Y-55346600D03*
D11*
%TO.P,J4,2,Pin_2*%
%TO.N,Net-(J4-Pin_2)*%
X152302000Y-55346600D03*
%TO.P,J4,3,Pin_3*%
%TO.N,Net-(BT4-+)*%
X155702000Y-55346600D03*
%TO.P,J4,4,Pin_4*%
%TO.N,Net-(BT4--)*%
X159102000Y-55346600D03*
%TD*%
D10*
%TO.P,BT1,1,+*%
%TO.N,Net-(BT1-+)*%
X203454000Y-61742400D03*
D11*
%TO.P,BT1,2,-*%
%TO.N,Net-(BT1--)*%
X203454000Y-64282400D03*
%TD*%
D10*
%TO.P,J9,1,Pin_1*%
%TO.N,Net-(BT1-+)*%
X192000000Y-54279800D03*
D11*
%TO.P,J9,2,Pin_2*%
%TO.N,Net-(BT1--)*%
X192000000Y-56819800D03*
%TD*%
D12*
%TO.P,H5,1*%
%TO.N,N/C*%
X88595200Y-75514200D03*
%TD*%
D10*
%TO.P,BT2,1,+*%
%TO.N,Net-(BT2-+)*%
X145000000Y-56775000D03*
D11*
%TO.P,BT2,2,-*%
%TO.N,Net-(BT2--)*%
X145000000Y-54235000D03*
%TD*%
D12*
%TO.P,H9,1*%
%TO.N,N/C*%
X164490400Y-62484000D03*
%TD*%
D10*
%TO.P,J8,1,Pin_1*%
%TO.N,Net-(J1-Pin_1)*%
X192100200Y-61666200D03*
D11*
%TO.P,J8,2,Pin_2*%
%TO.N,Net-(J1-Pin_5)*%
X192100200Y-64206200D03*
%TD*%
D12*
%TO.P,H11,1*%
%TO.N,N/C*%
X183997600Y-59918600D03*
%TD*%
%TO.P,H13,1*%
%TO.N,N/C*%
X164541200Y-76454000D03*
%TD*%
%TO.P,H12,1*%
%TO.N,N/C*%
X184200800Y-76073000D03*
%TD*%
D10*
%TO.P,SW2,1,A*%
%TO.N,Net-(J5-Pin_2)*%
X221777400Y-54244400D03*
D11*
%TO.P,SW2,2,B*%
%TO.N,Net-(J5-Pin_1)*%
X224317400Y-54244400D03*
%TO.P,SW2,3,A*%
%TO.N,Net-(J2-Pin_4)*%
X226857400Y-54244400D03*
%TO.P,SW2,4,B*%
%TO.N,Net-(J2-Pin_3)*%
X229397400Y-54244400D03*
%TD*%
D13*
%TO.P,H2,1*%
%TO.N,N/C*%
X120650000Y-74559400D03*
%TD*%
D12*
%TO.P,H8,1*%
%TO.N,N/C*%
X138785600Y-59867800D03*
%TD*%
D10*
%TO.P,BT4,1,+*%
%TO.N,Net-(BT4-+)*%
X167182800Y-56769000D03*
D11*
%TO.P,BT4,2,-*%
%TO.N,Net-(BT4--)*%
X167182800Y-54229000D03*
%TD*%
D13*
%TO.P,H3,1*%
%TO.N,N/C*%
X163000000Y-55092600D03*
%TD*%
D12*
%TO.P,H6,1*%
%TO.N,N/C*%
X113030000Y-61087000D03*
%TD*%
D13*
%TO.P,H4,1*%
%TO.N,N/C*%
X188500000Y-55118000D03*
%TD*%
D14*
%TO.P,J7,1,Pin_1*%
%TO.N,Net-(J7-Pin_1)*%
X118186200Y-63474600D03*
D15*
%TO.P,J7,2,Pin_2*%
%TO.N,Net-(BT2--)*%
X120716536Y-63253224D03*
%TD*%
D16*
%TO.N,Net-(J1-Pin_1)*%
X146241116Y-64500000D03*
%TO.N,Net-(J1-Pin_5)*%
X148500000Y-63250000D03*
%TO.N,Net-(J10-Pin_2)*%
X214841655Y-61417057D03*
%TO.N,Net-(J10-Pin_1)*%
X215750000Y-59500000D03*
%TO.N,Net-(J4-Pin_1)*%
X215250000Y-64500000D03*
X209000000Y-59500000D03*
X157000000Y-53298600D03*
%TD*%
D17*
%TO.N,Net-(BT1-+)*%
X195991400Y-54279800D02*
X192000000Y-54279800D01*
X203454000Y-61742400D02*
X195991400Y-54279800D01*
%TO.N,Net-(BT1--)*%
X199462600Y-64282400D02*
X203454000Y-64282400D01*
X192000000Y-56819800D02*
X199462600Y-64282400D01*
%TO.N,Net-(BT2--)*%
X143797919Y-54235000D02*
X142750000Y-55282919D01*
X145000000Y-54235000D02*
X143797919Y-54235000D01*
X142750000Y-59297513D02*
X139574713Y-62472800D01*
X139574713Y-62472800D02*
X134067632Y-62472800D01*
X121377200Y-62122800D02*
X120716535Y-62783465D01*
X133717632Y-62122800D02*
X121377200Y-62122800D01*
X120716535Y-62783465D02*
X120716535Y-63253224D01*
X134067632Y-62472800D02*
X133717632Y-62122800D01*
X142750000Y-55282919D02*
X142750000Y-59297513D01*
%TO.N,Net-(BT2-+)*%
X216182423Y-67032400D02*
X157782400Y-67032400D01*
X221828200Y-61386623D02*
X216182423Y-67032400D01*
X221828200Y-57962800D02*
X221828200Y-61386623D01*
X157782400Y-67032400D02*
X147525000Y-56775000D01*
X147525000Y-56775000D02*
X145000000Y-56775000D01*
%TO.N,Net-(BT4--)*%
X163807717Y-57042600D02*
X160798000Y-57042600D01*
X166621317Y-54229000D02*
X163807717Y-57042600D01*
X160798000Y-57042600D02*
X159102000Y-55346600D01*
X167182800Y-54229000D02*
X166621317Y-54229000D01*
%TO.N,Net-(BT4-+)*%
X155702000Y-55346600D02*
X158598000Y-58242600D01*
X158598000Y-58242600D02*
X165709200Y-58242600D01*
X165709200Y-58242600D02*
X167182800Y-56769000D01*
%TO.N,Net-(J1-Pin_1)*%
X143777200Y-65222800D02*
X144500000Y-64500000D01*
X144500000Y-64500000D02*
X146241116Y-64500000D01*
X124465600Y-65222800D02*
X143777200Y-65222800D01*
X122915600Y-63672800D02*
X124465600Y-65222800D01*
%TO.N,Net-(J1-Pin_5)*%
X140071769Y-63672800D02*
X133075600Y-63672800D01*
X148500000Y-63250000D02*
X140494569Y-63250000D01*
X140494569Y-63250000D02*
X140071769Y-63672800D01*
%TO.N,Net-(J10-Pin_2)*%
X212115400Y-56789400D02*
X212115400Y-58690802D01*
X212115400Y-58690802D02*
X214841655Y-61417057D01*
%TO.N,Net-(J10-Pin_1)*%
X215750000Y-57884000D02*
X215750000Y-59500000D01*
X212115400Y-54249400D02*
X215750000Y-57884000D01*
%TO.N,Net-(J4-Pin_2)*%
X162787800Y-65832400D02*
X152302000Y-55346600D01*
X225358200Y-56412800D02*
X220587200Y-56412800D01*
X215685367Y-65832400D02*
X162787800Y-65832400D01*
X226908200Y-57962800D02*
X225358200Y-56412800D01*
X220587200Y-56412800D02*
X216500000Y-60500000D01*
X216500000Y-65017767D02*
X215685367Y-65832400D01*
X216500000Y-60500000D02*
X216500000Y-65017767D01*
%TO.N,Net-(J4-Pin_1)*%
X150950000Y-53298600D02*
X157000000Y-53298600D01*
X148902000Y-55346600D02*
X150950000Y-53298600D01*
X209000000Y-59500000D02*
X210250000Y-59500000D01*
X210250000Y-59500000D02*
X215250000Y-64500000D01*
%TO.N,Net-(J7-Pin_1)*%
X216225679Y-68686200D02*
X224368200Y-60543679D01*
X123397800Y-68686200D02*
X216225679Y-68686200D01*
X118186200Y-63474600D02*
X123397800Y-68686200D01*
X224368200Y-60543679D02*
X224368200Y-57962800D01*
%TD*%
%TA.AperFunction,NonConductor*%
G36*
X223729011Y-52818785D02*
G01*
X223774766Y-52871589D01*
X223784710Y-52940747D01*
X223755685Y-53004303D01*
X223714377Y-53035482D01*
X223639571Y-53070364D01*
X223639569Y-53070365D01*
X223446000Y-53205903D01*
X223324073Y-53327830D01*
X223262750Y-53361314D01*
X223193058Y-53356330D01*
X223137125Y-53314458D01*
X223120210Y-53283481D01*
X223071197Y-53152071D01*
X223071193Y-53152064D01*
X223010032Y-53070365D01*
X222984946Y-53036854D01*
X222965591Y-53022365D01*
X222923722Y-52966433D01*
X222918738Y-52896741D01*
X222952223Y-52835418D01*
X223013547Y-52801934D01*
X223039904Y-52799100D01*
X223661972Y-52799100D01*
X223729011Y-52818785D01*
G37*
%TD.AperFunction*%
%TA.AperFunction,NonConductor*%
G36*
X228809011Y-52818785D02*
G01*
X228854766Y-52871589D01*
X228864710Y-52940747D01*
X228835685Y-53004303D01*
X228794377Y-53035482D01*
X228719571Y-53070364D01*
X228719569Y-53070365D01*
X228525997Y-53205905D01*
X228358905Y-53372997D01*
X228228975Y-53558558D01*
X228174398Y-53602183D01*
X228104900Y-53609377D01*
X228042545Y-53577854D01*
X228025825Y-53558558D01*
X227895894Y-53372997D01*
X227728802Y-53205906D01*
X227728795Y-53205901D01*
X227720450Y-53200058D01*
X227651918Y-53152071D01*
X227535234Y-53070367D01*
X227535230Y-53070365D01*
X227515072Y-53060965D01*
X227460422Y-53035481D01*
X227407984Y-52989310D01*
X227388832Y-52922116D01*
X227409048Y-52855235D01*
X227462213Y-52809900D01*
X227512828Y-52799100D01*
X228741972Y-52799100D01*
X228809011Y-52818785D01*
G37*
%TD.AperFunction*%
%TA.AperFunction,NonConductor*%
G36*
X226269011Y-52818785D02*
G01*
X226314766Y-52871589D01*
X226324710Y-52940747D01*
X226295685Y-53004303D01*
X226254377Y-53035482D01*
X226179571Y-53070364D01*
X226179569Y-53070365D01*
X225985997Y-53205905D01*
X225818905Y-53372997D01*
X225688975Y-53558558D01*
X225634398Y-53602183D01*
X225564900Y-53609377D01*
X225502545Y-53577854D01*
X225485825Y-53558558D01*
X225355894Y-53372997D01*
X225188802Y-53205906D01*
X225188795Y-53205901D01*
X225180450Y-53200058D01*
X225111918Y-53152071D01*
X224995234Y-53070367D01*
X224995230Y-53070365D01*
X224975072Y-53060965D01*
X224920422Y-53035481D01*
X224867984Y-52989310D01*
X224848832Y-52922116D01*
X224869048Y-52855235D01*
X224922213Y-52809900D01*
X224972828Y-52799100D01*
X226201972Y-52799100D01*
X226269011Y-52818785D01*
G37*
%TD.AperFunction*%
%TA.AperFunction,NonConductor*%
G36*
X144391453Y-52818785D02*
G01*
X144437208Y-52871589D01*
X144447152Y-52940747D01*
X144418127Y-53004303D01*
X144376819Y-53035482D01*
X144322171Y-53060964D01*
X144322169Y-53060965D01*
X144128597Y-53196505D01*
X144126922Y-53198181D01*
X144126000Y-53198684D01*
X144124449Y-53199986D01*
X144124187Y-53199674D01*
X144065599Y-53231666D01*
X144039241Y-53234500D01*
X143699377Y-53234500D01*
X143675750Y-53239200D01*
X143652122Y-53243900D01*
X143652121Y-53243900D01*
X143506089Y-53272947D01*
X143506079Y-53272950D01*
X143483389Y-53282349D01*
X143324007Y-53348366D01*
X143323999Y-53348371D01*
X143251011Y-53397141D01*
X143236849Y-53406604D01*
X143217799Y-53419332D01*
X143160134Y-53457862D01*
X142553034Y-54064962D01*
X142491711Y-54098447D01*
X142422019Y-54093463D01*
X142366086Y-54051591D01*
X142341825Y-53988090D01*
X142335063Y-53910792D01*
X142283986Y-53720167D01*
X142273905Y-53682544D01*
X142273904Y-53682543D01*
X142273903Y-53682537D01*
X142174035Y-53468371D01*
X142167150Y-53458537D01*
X142038494Y-53274797D01*
X141871402Y-53107706D01*
X141871396Y-53107701D01*
X141752822Y-53024675D01*
X141709197Y-52970098D01*
X141702003Y-52900600D01*
X141733526Y-52838245D01*
X141793756Y-52802831D01*
X141823945Y-52799100D01*
X144324414Y-52799100D01*
X144391453Y-52818785D01*
G37*
%TD.AperFunction*%
%TA.AperFunction,NonConductor*%
G36*
X149802256Y-52818785D02*
G01*
X149848011Y-52871589D01*
X149857955Y-52940747D01*
X149828930Y-53004303D01*
X149822898Y-53010781D01*
X148873897Y-53959781D01*
X148812574Y-53993266D01*
X148786216Y-53996100D01*
X148004129Y-53996100D01*
X148004123Y-53996101D01*
X147944516Y-54002508D01*
X147809671Y-54052802D01*
X147809664Y-54052806D01*
X147694455Y-54139052D01*
X147694452Y-54139055D01*
X147608206Y-54254264D01*
X147608202Y-54254271D01*
X147557908Y-54389117D01*
X147552358Y-54440747D01*
X147551500Y-54448727D01*
X147551500Y-55111197D01*
X147551501Y-55650500D01*
X147531816Y-55717539D01*
X147479013Y-55763294D01*
X147427501Y-55774500D01*
X146414141Y-55774500D01*
X146347102Y-55754815D01*
X146301347Y-55702011D01*
X146297969Y-55693859D01*
X146293796Y-55682669D01*
X146293793Y-55682665D01*
X146293793Y-55682664D01*
X146207547Y-55567455D01*
X146207544Y-55567452D01*
X146092335Y-55481206D01*
X146092328Y-55481202D01*
X145960917Y-55432189D01*
X145904983Y-55390318D01*
X145880566Y-55324853D01*
X145895418Y-55256580D01*
X145916563Y-55228332D01*
X146038495Y-55106401D01*
X146174035Y-54912830D01*
X146273903Y-54698663D01*
X146335063Y-54470408D01*
X146355659Y-54235000D01*
X146335063Y-53999592D01*
X146273903Y-53771337D01*
X146174035Y-53557171D01*
X146169833Y-53551169D01*
X146038494Y-53363597D01*
X145871402Y-53196506D01*
X145871395Y-53196501D01*
X145862833Y-53190506D01*
X145832521Y-53169281D01*
X145677834Y-53060967D01*
X145677830Y-53060965D01*
X145652664Y-53049230D01*
X145623180Y-53035481D01*
X145570742Y-52989310D01*
X145551590Y-52922116D01*
X145571806Y-52855235D01*
X145624971Y-52809900D01*
X145675586Y-52799100D01*
X149735217Y-52799100D01*
X149802256Y-52818785D01*
G37*
%TD.AperFunction*%
%TA.AperFunction,NonConductor*%
G36*
X154615648Y-54318785D02*
G01*
X154661403Y-54371589D01*
X154671347Y-54440747D01*
X154650184Y-54494223D01*
X154527965Y-54668769D01*
X154527964Y-54668771D01*
X154428098Y-54882935D01*
X154428094Y-54882944D01*
X154366938Y-55111186D01*
X154366936Y-55111196D01*
X154346341Y-55346599D01*
X154346341Y-55346600D01*
X154366936Y-55582003D01*
X154366938Y-55582013D01*
X154398919Y-55701369D01*
X154397256Y-55771219D01*
X154358093Y-55829081D01*
X154293864Y-55856585D01*
X154224962Y-55844998D01*
X154191463Y-55821143D01*
X153683890Y-55313570D01*
X153650405Y-55252247D01*
X153648043Y-55236696D01*
X153646786Y-55222325D01*
X153637063Y-55111192D01*
X153588578Y-54930242D01*
X153575905Y-54882944D01*
X153575904Y-54882943D01*
X153575903Y-54882937D01*
X153476035Y-54668771D01*
X153434787Y-54609863D01*
X153353816Y-54494223D01*
X153331489Y-54428017D01*
X153348499Y-54360250D01*
X153399447Y-54312437D01*
X153455391Y-54299100D01*
X154548609Y-54299100D01*
X154615648Y-54318785D01*
G37*
%TD.AperFunction*%
%TA.AperFunction,NonConductor*%
G36*
X166561386Y-52818785D02*
G01*
X166607141Y-52871589D01*
X166617085Y-52940747D01*
X166588060Y-53004303D01*
X166546752Y-53035482D01*
X166504971Y-53054964D01*
X166504969Y-53054965D01*
X166311400Y-53190503D01*
X166185552Y-53316350D01*
X166152284Y-53338581D01*
X166152774Y-53339497D01*
X166147400Y-53342369D01*
X165983539Y-53451857D01*
X165983531Y-53451863D01*
X164862857Y-54572537D01*
X164801534Y-54606022D01*
X164731842Y-54601038D01*
X164675909Y-54559166D01*
X164659750Y-54530161D01*
X164581568Y-54330957D01*
X164450386Y-54103743D01*
X164286805Y-53898619D01*
X164286804Y-53898618D01*
X164286801Y-53898614D01*
X164094479Y-53720167D01*
X164040449Y-53683330D01*
X163877704Y-53572372D01*
X163877700Y-53572370D01*
X163877697Y-53572368D01*
X163877696Y-53572367D01*
X163641325Y-53458538D01*
X163641327Y-53458538D01*
X163390623Y-53381206D01*
X163390619Y-53381205D01*
X163390615Y-53381204D01*
X163258656Y-53361314D01*
X163131187Y-53342100D01*
X163131182Y-53342100D01*
X162868818Y-53342100D01*
X162868812Y-53342100D01*
X162726184Y-53363599D01*
X162609385Y-53381204D01*
X162609382Y-53381205D01*
X162609376Y-53381206D01*
X162358673Y-53458538D01*
X162122303Y-53572367D01*
X162122302Y-53572368D01*
X161905520Y-53720167D01*
X161713198Y-53898614D01*
X161549614Y-54103743D01*
X161418432Y-54330956D01*
X161322582Y-54575178D01*
X161322576Y-54575197D01*
X161264197Y-54830974D01*
X161264196Y-54830979D01*
X161244592Y-55092595D01*
X161244592Y-55092604D01*
X161264196Y-55354220D01*
X161264197Y-55354225D01*
X161322576Y-55610002D01*
X161322582Y-55610021D01*
X161418430Y-55854240D01*
X161419504Y-55856099D01*
X161419685Y-55856845D01*
X161420447Y-55858428D01*
X161420108Y-55858590D01*
X161435977Y-55923999D01*
X161413125Y-55990026D01*
X161358204Y-56033217D01*
X161312117Y-56042100D01*
X161263782Y-56042100D01*
X161196743Y-56022415D01*
X161176101Y-56005781D01*
X160483890Y-55313570D01*
X160450405Y-55252247D01*
X160448043Y-55236696D01*
X160446786Y-55222325D01*
X160437063Y-55111192D01*
X160388578Y-54930242D01*
X160375905Y-54882944D01*
X160375904Y-54882943D01*
X160375903Y-54882937D01*
X160276035Y-54668771D01*
X160234788Y-54609863D01*
X160140494Y-54475197D01*
X159973402Y-54308106D01*
X159973395Y-54308101D01*
X159960540Y-54299100D01*
X159921916Y-54272055D01*
X159779834Y-54172567D01*
X159779830Y-54172565D01*
X159755400Y-54161173D01*
X159565663Y-54072697D01*
X159565659Y-54072696D01*
X159565655Y-54072694D01*
X159337413Y-54011538D01*
X159337403Y-54011536D01*
X159102001Y-53990941D01*
X159101999Y-53990941D01*
X158866596Y-54011536D01*
X158866586Y-54011538D01*
X158638344Y-54072694D01*
X158638337Y-54072696D01*
X158638337Y-54072697D01*
X158631811Y-54075740D01*
X158424171Y-54172564D01*
X158424169Y-54172565D01*
X158230597Y-54308105D01*
X158063505Y-54475197D01*
X157927965Y-54668769D01*
X157927964Y-54668771D01*
X157828098Y-54882935D01*
X157828094Y-54882944D01*
X157766938Y-55111186D01*
X157766936Y-55111196D01*
X157746341Y-55346599D01*
X157746341Y-55346600D01*
X157766936Y-55582003D01*
X157766939Y-55582016D01*
X157798918Y-55701368D01*
X157797255Y-55771217D01*
X157758092Y-55829080D01*
X157693863Y-55856583D01*
X157624961Y-55844996D01*
X157591462Y-55821141D01*
X157083890Y-55313569D01*
X157050405Y-55252246D01*
X157048043Y-55236695D01*
X157046786Y-55222325D01*
X157037063Y-55111192D01*
X156988578Y-54930242D01*
X156975905Y-54882944D01*
X156975904Y-54882943D01*
X156975903Y-54882937D01*
X156876035Y-54668771D01*
X156834787Y-54609863D01*
X156753816Y-54494223D01*
X156731489Y-54428017D01*
X156748499Y-54360250D01*
X156799447Y-54312437D01*
X156855391Y-54299100D01*
X156944756Y-54299100D01*
X156956909Y-54299696D01*
X157000000Y-54303941D01*
X157043090Y-54299696D01*
X157055244Y-54299100D01*
X157098542Y-54299100D01*
X157114454Y-54295934D01*
X157141005Y-54290653D01*
X157153037Y-54288868D01*
X157196132Y-54284624D01*
X157237580Y-54272050D01*
X157249353Y-54269100D01*
X157291835Y-54260651D01*
X157331847Y-54244076D01*
X157343280Y-54239986D01*
X157384727Y-54227414D01*
X157422918Y-54206999D01*
X157433906Y-54201802D01*
X157473914Y-54185232D01*
X157509938Y-54161160D01*
X157520351Y-54154920D01*
X157546591Y-54140895D01*
X157558535Y-54134512D01*
X157558539Y-54134509D01*
X157565078Y-54129143D01*
X157592005Y-54107044D01*
X157601782Y-54099793D01*
X157603797Y-54098447D01*
X157637782Y-54075739D01*
X157668408Y-54045112D01*
X157677402Y-54036959D01*
X157710883Y-54009483D01*
X157738359Y-53976002D01*
X157746512Y-53967008D01*
X157777139Y-53936382D01*
X157801193Y-53900381D01*
X157808444Y-53890605D01*
X157835909Y-53857139D01*
X157835912Y-53857135D01*
X157842295Y-53845191D01*
X157856320Y-53818951D01*
X157862560Y-53808538D01*
X157886632Y-53772514D01*
X157903202Y-53732506D01*
X157908399Y-53721518D01*
X157928814Y-53683327D01*
X157941386Y-53641880D01*
X157945476Y-53630447D01*
X157962051Y-53590435D01*
X157970500Y-53547953D01*
X157973450Y-53536180D01*
X157986024Y-53494732D01*
X157990268Y-53451637D01*
X157992054Y-53439599D01*
X158000500Y-53397141D01*
X158000500Y-53353844D01*
X158001097Y-53341690D01*
X158003005Y-53322317D01*
X158005341Y-53298600D01*
X158001097Y-53255507D01*
X158000500Y-53243354D01*
X158000500Y-53200058D01*
X157997995Y-53187464D01*
X157992052Y-53157590D01*
X157990268Y-53145561D01*
X157986024Y-53102469D01*
X157986024Y-53102468D01*
X157973448Y-53061014D01*
X157970499Y-53049240D01*
X157962051Y-53006765D01*
X157947050Y-52970552D01*
X157939582Y-52901084D01*
X157970857Y-52838605D01*
X158030945Y-52802952D01*
X158061612Y-52799100D01*
X166494347Y-52799100D01*
X166561386Y-52818785D01*
G37*
%TD.AperFunction*%
%TA.AperFunction,NonConductor*%
G36*
X158747232Y-56649681D02*
G01*
X158866592Y-56681663D01*
X158992097Y-56692643D01*
X159057165Y-56718095D01*
X159068970Y-56728490D01*
X159370899Y-57030419D01*
X159404384Y-57091742D01*
X159399400Y-57161434D01*
X159357528Y-57217367D01*
X159292064Y-57241784D01*
X159283218Y-57242100D01*
X159063783Y-57242100D01*
X158996744Y-57222415D01*
X158976102Y-57205781D01*
X158627458Y-56857137D01*
X158593973Y-56795814D01*
X158598957Y-56726122D01*
X158640829Y-56670189D01*
X158706293Y-56645772D01*
X158747232Y-56649681D01*
G37*
%TD.AperFunction*%
%TA.AperFunction,NonConductor*%
G36*
X220581935Y-52818785D02*
G01*
X220627690Y-52871589D01*
X220637634Y-52940747D01*
X220608609Y-53004303D01*
X220589210Y-53022363D01*
X220569854Y-53036854D01*
X220569853Y-53036855D01*
X220569852Y-53036856D01*
X220483606Y-53152064D01*
X220483602Y-53152071D01*
X220433308Y-53286917D01*
X220426901Y-53346516D01*
X220426900Y-53346535D01*
X220426900Y-55142270D01*
X220426901Y-55142276D01*
X220433309Y-55201884D01*
X220459271Y-55271494D01*
X220464255Y-55341185D01*
X220430769Y-55402508D01*
X220369446Y-55435993D01*
X220367280Y-55436443D01*
X220295372Y-55450746D01*
X220295364Y-55450748D01*
X220113288Y-55526166D01*
X220113279Y-55526171D01*
X219949419Y-55635659D01*
X219949415Y-55635662D01*
X216962181Y-58622897D01*
X216900858Y-58656382D01*
X216831166Y-58651398D01*
X216775233Y-58609526D01*
X216750816Y-58544062D01*
X216750500Y-58535216D01*
X216750500Y-57988675D01*
X216750501Y-57988654D01*
X216750501Y-57785457D01*
X216750500Y-57785455D01*
X216736163Y-57713378D01*
X216712052Y-57592165D01*
X216636632Y-57410086D01*
X216636631Y-57410085D01*
X216636628Y-57410079D01*
X216527140Y-57246219D01*
X216527137Y-57246215D01*
X213502218Y-54221297D01*
X213468733Y-54159974D01*
X213465899Y-54133616D01*
X213465899Y-53351529D01*
X213465898Y-53351523D01*
X213465897Y-53351516D01*
X213459491Y-53291917D01*
X213455922Y-53282349D01*
X213409197Y-53157071D01*
X213409193Y-53157064D01*
X213322947Y-53041855D01*
X213322944Y-53041852D01*
X213296914Y-53022366D01*
X213255043Y-52966433D01*
X213250059Y-52896741D01*
X213283545Y-52835418D01*
X213344868Y-52801934D01*
X213371225Y-52799100D01*
X214777290Y-52799100D01*
X220514896Y-52799100D01*
X220581935Y-52818785D01*
G37*
%TD.AperFunction*%
%TA.AperFunction,NonConductor*%
G36*
X141692539Y-58056384D02*
G01*
X141738294Y-58109188D01*
X141749500Y-58160699D01*
X141749500Y-58831730D01*
X141729815Y-58898769D01*
X141713181Y-58919411D01*
X141149380Y-59483211D01*
X141088057Y-59516696D01*
X141018365Y-59511712D01*
X140962432Y-59469840D01*
X140940082Y-59419721D01*
X140915681Y-59297047D01*
X140822959Y-59023898D01*
X140695378Y-58765189D01*
X140646179Y-58691557D01*
X140535121Y-58525347D01*
X140344927Y-58308472D01*
X140282730Y-58253927D01*
X140245306Y-58194925D01*
X140245722Y-58125057D01*
X140283845Y-58066504D01*
X140347573Y-58037858D01*
X140364476Y-58036699D01*
X141625500Y-58036699D01*
X141692539Y-58056384D01*
G37*
%TD.AperFunction*%
%TA.AperFunction,NonConductor*%
G36*
X213568833Y-57130317D02*
G01*
X213607704Y-57156625D01*
X214713181Y-58262101D01*
X214746666Y-58323424D01*
X214749500Y-58349782D01*
X214749500Y-59444754D01*
X214748903Y-59456907D01*
X214744659Y-59499999D01*
X214748903Y-59543090D01*
X214749500Y-59555244D01*
X214749500Y-59598544D01*
X214749557Y-59599123D01*
X214749500Y-59599423D01*
X214749500Y-59604632D01*
X214748512Y-59604632D01*
X214736537Y-59667769D01*
X214688470Y-59718478D01*
X214620619Y-59735150D01*
X214554525Y-59712493D01*
X214538473Y-59698955D01*
X213152219Y-58312701D01*
X213118734Y-58251378D01*
X213115900Y-58225020D01*
X213115900Y-57750158D01*
X213135585Y-57683119D01*
X213152219Y-57662477D01*
X213153895Y-57660801D01*
X213289435Y-57467230D01*
X213389303Y-57253063D01*
X213400248Y-57212211D01*
X213436611Y-57152554D01*
X213499457Y-57122023D01*
X213568833Y-57130317D01*
G37*
%TD.AperFunction*%
%TA.AperFunction,NonConductor*%
G36*
X223303125Y-58974826D02*
G01*
X223352531Y-59024230D01*
X223367700Y-59083659D01*
X223367700Y-60077896D01*
X223348015Y-60144935D01*
X223331381Y-60165577D01*
X223040381Y-60456577D01*
X222979058Y-60490062D01*
X222909366Y-60485078D01*
X222853433Y-60443206D01*
X222829016Y-60377742D01*
X222828700Y-60368896D01*
X222828700Y-59376941D01*
X222848385Y-59309902D01*
X222901189Y-59264147D01*
X222909349Y-59260766D01*
X222920531Y-59256596D01*
X223035746Y-59170346D01*
X223121996Y-59055131D01*
X223127518Y-59040325D01*
X223169388Y-58984393D01*
X223234852Y-58959975D01*
X223303125Y-58974826D01*
G37*
%TD.AperFunction*%
%TA.AperFunction,NonConductor*%
G36*
X215450687Y-62313651D02*
G01*
X215492061Y-62369953D01*
X215499500Y-62412256D01*
X215499500Y-63035218D01*
X215479815Y-63102257D01*
X215427011Y-63148012D01*
X215357853Y-63157956D01*
X215294297Y-63128931D01*
X215287819Y-63122899D01*
X214795508Y-62630588D01*
X214762023Y-62569265D01*
X214767007Y-62499573D01*
X214808879Y-62443640D01*
X214871037Y-62419504D01*
X214873598Y-62419251D01*
X214884748Y-62418154D01*
X214896899Y-62417557D01*
X214940196Y-62417557D01*
X214957634Y-62414088D01*
X214982659Y-62409110D01*
X214994691Y-62407325D01*
X215037787Y-62403081D01*
X215079225Y-62390509D01*
X215091025Y-62387554D01*
X215133491Y-62379108D01*
X215173510Y-62362530D01*
X215184930Y-62358444D01*
X215226382Y-62345871D01*
X215264577Y-62325454D01*
X215275556Y-62320261D01*
X215315569Y-62303688D01*
X215315575Y-62303683D01*
X215317039Y-62302902D01*
X215317896Y-62302723D01*
X215321198Y-62301356D01*
X215321457Y-62301981D01*
X215385441Y-62288655D01*
X215450687Y-62313651D01*
G37*
%TD.AperFunction*%
%TA.AperFunction,NonConductor*%
G36*
X195592657Y-55299985D02*
G01*
X195613299Y-55316619D01*
X202067181Y-61770501D01*
X202100666Y-61831824D01*
X202103500Y-61858182D01*
X202103500Y-62640270D01*
X202103501Y-62640276D01*
X202109908Y-62699883D01*
X202160202Y-62834728D01*
X202160206Y-62834735D01*
X202246452Y-62949944D01*
X202246455Y-62949947D01*
X202361664Y-63036193D01*
X202361671Y-63036197D01*
X202376473Y-63041718D01*
X202432407Y-63083589D01*
X202456824Y-63149054D01*
X202441972Y-63217327D01*
X202392567Y-63266732D01*
X202333140Y-63281900D01*
X199928382Y-63281900D01*
X199861343Y-63262215D01*
X199840701Y-63245581D01*
X193381890Y-56786770D01*
X193348405Y-56725447D01*
X193346043Y-56709896D01*
X193344951Y-56697415D01*
X193335063Y-56584392D01*
X193273903Y-56356137D01*
X193174035Y-56141971D01*
X193152747Y-56111569D01*
X193038496Y-55948400D01*
X193008095Y-55917999D01*
X192916567Y-55826471D01*
X192883084Y-55765151D01*
X192888068Y-55695459D01*
X192929939Y-55639525D01*
X192960915Y-55622610D01*
X193092331Y-55573596D01*
X193207546Y-55487346D01*
X193293796Y-55372131D01*
X193297960Y-55360965D01*
X193339829Y-55305034D01*
X193405293Y-55280616D01*
X193414141Y-55280300D01*
X195525618Y-55280300D01*
X195592657Y-55299985D01*
G37*
%TD.AperFunction*%
%TA.AperFunction,NonConductor*%
G36*
X220397034Y-58120399D02*
G01*
X220452967Y-58162271D01*
X220477384Y-58227735D01*
X220477700Y-58236581D01*
X220477700Y-58860670D01*
X220477701Y-58860676D01*
X220484108Y-58920283D01*
X220534402Y-59055128D01*
X220534406Y-59055135D01*
X220620652Y-59170344D01*
X220620655Y-59170347D01*
X220735865Y-59256594D01*
X220735867Y-59256594D01*
X220735869Y-59256596D01*
X220747030Y-59260758D01*
X220802964Y-59302626D01*
X220827384Y-59368089D01*
X220827700Y-59376941D01*
X220827700Y-60920840D01*
X220808015Y-60987879D01*
X220791381Y-61008521D01*
X217712181Y-64087721D01*
X217650858Y-64121206D01*
X217581166Y-64116222D01*
X217525233Y-64074350D01*
X217500816Y-64008886D01*
X217500500Y-64000040D01*
X217500500Y-60965782D01*
X217520185Y-60898743D01*
X217536819Y-60878101D01*
X218898224Y-59516696D01*
X220266021Y-58148898D01*
X220327342Y-58115415D01*
X220397034Y-58120399D01*
G37*
%TD.AperFunction*%
%TA.AperFunction,NonConductor*%
G36*
X210926614Y-52818785D02*
G01*
X210972369Y-52871589D01*
X210982313Y-52940747D01*
X210953288Y-53004303D01*
X210933886Y-53022366D01*
X210907855Y-53041852D01*
X210907852Y-53041855D01*
X210821606Y-53157064D01*
X210821602Y-53157071D01*
X210771308Y-53291917D01*
X210765239Y-53348371D01*
X210764901Y-53351523D01*
X210764900Y-53351535D01*
X210764900Y-55147270D01*
X210764901Y-55147276D01*
X210771308Y-55206883D01*
X210821602Y-55341728D01*
X210821606Y-55341735D01*
X210907852Y-55456944D01*
X210907855Y-55456947D01*
X211023064Y-55543193D01*
X211023071Y-55543197D01*
X211154481Y-55592210D01*
X211210415Y-55634081D01*
X211234832Y-55699545D01*
X211219980Y-55767818D01*
X211198830Y-55796073D01*
X211076903Y-55918000D01*
X210941365Y-56111569D01*
X210941364Y-56111571D01*
X210841498Y-56325735D01*
X210841494Y-56325744D01*
X210780338Y-56553986D01*
X210780336Y-56553996D01*
X210759741Y-56789399D01*
X210759741Y-56789400D01*
X210780336Y-57024803D01*
X210780338Y-57024813D01*
X210841494Y-57253055D01*
X210841496Y-57253059D01*
X210841497Y-57253063D01*
X210876337Y-57327777D01*
X210941365Y-57467230D01*
X210941367Y-57467234D01*
X211028850Y-57592172D01*
X211070525Y-57651690D01*
X211076901Y-57660795D01*
X211076906Y-57660802D01*
X211078581Y-57662477D01*
X211079082Y-57663395D01*
X211080382Y-57664944D01*
X211080070Y-57665205D01*
X211112066Y-57723800D01*
X211114900Y-57750158D01*
X211114900Y-58650616D01*
X211095215Y-58717655D01*
X211042411Y-58763410D01*
X210973253Y-58773354D01*
X210909697Y-58744329D01*
X210903219Y-58738297D01*
X210887785Y-58722863D01*
X210887781Y-58722860D01*
X210723920Y-58613371D01*
X210723911Y-58613366D01*
X210622078Y-58571186D01*
X210595165Y-58560038D01*
X210568500Y-58548993D01*
X210541837Y-58537949D01*
X210541833Y-58537948D01*
X210421316Y-58513976D01*
X210396974Y-58509134D01*
X210348543Y-58499500D01*
X210348541Y-58499500D01*
X209055244Y-58499500D01*
X209043090Y-58498903D01*
X209000000Y-58494659D01*
X208956910Y-58498903D01*
X208944756Y-58499500D01*
X208901453Y-58499500D01*
X208858991Y-58507945D01*
X208846963Y-58509730D01*
X208803867Y-58513976D01*
X208762427Y-58526546D01*
X208750626Y-58529502D01*
X208708166Y-58537948D01*
X208708161Y-58537949D01*
X208668159Y-58554518D01*
X208656707Y-58558616D01*
X208615272Y-58571186D01*
X208577091Y-58591594D01*
X208566093Y-58596795D01*
X208526091Y-58613364D01*
X208490080Y-58637426D01*
X208479645Y-58643680D01*
X208441465Y-58664087D01*
X208441460Y-58664091D01*
X208407990Y-58691557D01*
X208398225Y-58698799D01*
X208362225Y-58722855D01*
X208362219Y-58722860D01*
X208331595Y-58753483D01*
X208322584Y-58761650D01*
X208289117Y-58789117D01*
X208261650Y-58822584D01*
X208253483Y-58831595D01*
X208222860Y-58862219D01*
X208222855Y-58862225D01*
X208198799Y-58898225D01*
X208191557Y-58907990D01*
X208164091Y-58941460D01*
X208164087Y-58941465D01*
X208143680Y-58979645D01*
X208137426Y-58990080D01*
X208113364Y-59026091D01*
X208096795Y-59066093D01*
X208091594Y-59077091D01*
X208071186Y-59115272D01*
X208058616Y-59156707D01*
X208054518Y-59168159D01*
X208037949Y-59208161D01*
X208037948Y-59208166D01*
X208029502Y-59250626D01*
X208026546Y-59262427D01*
X208013976Y-59303867D01*
X208009730Y-59346963D01*
X208007945Y-59358991D01*
X207999500Y-59401453D01*
X207999500Y-59444754D01*
X207998903Y-59456907D01*
X207994659Y-59499999D01*
X207998903Y-59543090D01*
X207999500Y-59555244D01*
X207999500Y-59598544D01*
X208007945Y-59641006D01*
X208009730Y-59653035D01*
X208013975Y-59696130D01*
X208013976Y-59696134D01*
X208026547Y-59737575D01*
X208029503Y-59749378D01*
X208037946Y-59791827D01*
X208037948Y-59791834D01*
X208054517Y-59831834D01*
X208058612Y-59843277D01*
X208071186Y-59884727D01*
X208071187Y-59884729D01*
X208091597Y-59922913D01*
X208096800Y-59933915D01*
X208113368Y-59973914D01*
X208113370Y-59973918D01*
X208137425Y-60009918D01*
X208143683Y-60020358D01*
X208164088Y-60058535D01*
X208164094Y-60058543D01*
X208191552Y-60092002D01*
X208198799Y-60101772D01*
X208222862Y-60137783D01*
X208222865Y-60137787D01*
X208253479Y-60168401D01*
X208261651Y-60177416D01*
X208289118Y-60210884D01*
X208322581Y-60238346D01*
X208331599Y-60246520D01*
X208362214Y-60277136D01*
X208362219Y-60277140D01*
X208380852Y-60289590D01*
X208396367Y-60299957D01*
X208398219Y-60301194D01*
X208407988Y-60308438D01*
X208441462Y-60335910D01*
X208441464Y-60335911D01*
X208479640Y-60356316D01*
X208490078Y-60362572D01*
X208526086Y-60386632D01*
X208566095Y-60403203D01*
X208577091Y-60408404D01*
X208615273Y-60428814D01*
X208656710Y-60441383D01*
X208668160Y-60445480D01*
X208708165Y-60462051D01*
X208750640Y-60470499D01*
X208762414Y-60473448D01*
X208803868Y-60486024D01*
X208846964Y-60490268D01*
X208858990Y-60492052D01*
X208889480Y-60498117D01*
X208901458Y-60500500D01*
X208901459Y-60500500D01*
X208944756Y-60500500D01*
X208956909Y-60501096D01*
X209000000Y-60505341D01*
X209043090Y-60501096D01*
X209055244Y-60500500D01*
X209784218Y-60500500D01*
X209851257Y-60520185D01*
X209871899Y-60536819D01*
X213955299Y-64620219D01*
X213988784Y-64681542D01*
X213983800Y-64751234D01*
X213941928Y-64807167D01*
X213876464Y-64831584D01*
X213867618Y-64831900D01*
X204866503Y-64831900D01*
X204799464Y-64812215D01*
X204753709Y-64759411D01*
X204743765Y-64690253D01*
X204746728Y-64675807D01*
X204763267Y-64614081D01*
X204789063Y-64517808D01*
X204809659Y-64282400D01*
X204789063Y-64046992D01*
X204727903Y-63818737D01*
X204628035Y-63604571D01*
X204620135Y-63593289D01*
X204492496Y-63411000D01*
X204472495Y-63390999D01*
X204370567Y-63289071D01*
X204337084Y-63227751D01*
X204342068Y-63158059D01*
X204383939Y-63102125D01*
X204414915Y-63085210D01*
X204546331Y-63036196D01*
X204661546Y-62949946D01*
X204747796Y-62834731D01*
X204798091Y-62699883D01*
X204804500Y-62640273D01*
X204804499Y-60844528D01*
X204798091Y-60784917D01*
X204791906Y-60768335D01*
X204747797Y-60650071D01*
X204747793Y-60650064D01*
X204661547Y-60534855D01*
X204661544Y-60534852D01*
X204546335Y-60448606D01*
X204546328Y-60448602D01*
X204411482Y-60398308D01*
X204411483Y-60398308D01*
X204351883Y-60391901D01*
X204351881Y-60391900D01*
X204351873Y-60391900D01*
X204351865Y-60391900D01*
X203569782Y-60391900D01*
X203502743Y-60372215D01*
X203482101Y-60355581D01*
X196772879Y-53646359D01*
X196772859Y-53646337D01*
X196629185Y-53502663D01*
X196629181Y-53502660D01*
X196465320Y-53393171D01*
X196465311Y-53393166D01*
X196382083Y-53358692D01*
X196336565Y-53339838D01*
X196307574Y-53327830D01*
X196283237Y-53317749D01*
X196283233Y-53317748D01*
X196153370Y-53291917D01*
X196089943Y-53279300D01*
X196089941Y-53279300D01*
X193414141Y-53279300D01*
X193347102Y-53259615D01*
X193301347Y-53206811D01*
X193297969Y-53198659D01*
X193293796Y-53187469D01*
X193293793Y-53187465D01*
X193293793Y-53187464D01*
X193207547Y-53072256D01*
X193207548Y-53072256D01*
X193207546Y-53072254D01*
X193140904Y-53022365D01*
X193099034Y-52966433D01*
X193094050Y-52896741D01*
X193127535Y-52835418D01*
X193188859Y-52801934D01*
X193215216Y-52799100D01*
X210859575Y-52799100D01*
X210926614Y-52818785D01*
G37*
%TD.AperFunction*%
%TA.AperFunction,NonConductor*%
G36*
X190851823Y-52818785D02*
G01*
X190897578Y-52871589D01*
X190907522Y-52940747D01*
X190878497Y-53004303D01*
X190859097Y-53022364D01*
X190792454Y-53072254D01*
X190792453Y-53072255D01*
X190792452Y-53072256D01*
X190706206Y-53187464D01*
X190706202Y-53187471D01*
X190655908Y-53322317D01*
X190649501Y-53381916D01*
X190649500Y-53381935D01*
X190649500Y-55177670D01*
X190649501Y-55177676D01*
X190655908Y-55237283D01*
X190706202Y-55372128D01*
X190706206Y-55372135D01*
X190792452Y-55487344D01*
X190792455Y-55487347D01*
X190907664Y-55573593D01*
X190907671Y-55573597D01*
X191039081Y-55622610D01*
X191095015Y-55664481D01*
X191119432Y-55729945D01*
X191104580Y-55798218D01*
X191083430Y-55826473D01*
X190961503Y-55948400D01*
X190825965Y-56141969D01*
X190825964Y-56141971D01*
X190726098Y-56356135D01*
X190726094Y-56356144D01*
X190664938Y-56584386D01*
X190664936Y-56584396D01*
X190644341Y-56819799D01*
X190644341Y-56819800D01*
X190664936Y-57055203D01*
X190664938Y-57055213D01*
X190726094Y-57283455D01*
X190726096Y-57283459D01*
X190726097Y-57283463D01*
X190811789Y-57467230D01*
X190825965Y-57497630D01*
X190825967Y-57497634D01*
X190933633Y-57651396D01*
X190961505Y-57691201D01*
X191128599Y-57858295D01*
X191225384Y-57926065D01*
X191322165Y-57993832D01*
X191322167Y-57993833D01*
X191322170Y-57993835D01*
X191536337Y-58093703D01*
X191764592Y-58154863D01*
X191890097Y-58165843D01*
X191955165Y-58191295D01*
X191966970Y-58201690D01*
X198385499Y-64620219D01*
X198418984Y-64681542D01*
X198414000Y-64751234D01*
X198372128Y-64807167D01*
X198306664Y-64831584D01*
X198297818Y-64831900D01*
X193492217Y-64831900D01*
X193425178Y-64812215D01*
X193379423Y-64759411D01*
X193369479Y-64690253D01*
X193373249Y-64675239D01*
X193372702Y-64675093D01*
X193406447Y-64549152D01*
X193435263Y-64441608D01*
X193455859Y-64206200D01*
X193454921Y-64195484D01*
X193447987Y-64116222D01*
X193435263Y-63970792D01*
X193374103Y-63742537D01*
X193274235Y-63528371D01*
X193249747Y-63493399D01*
X193138696Y-63334800D01*
X193085796Y-63281900D01*
X193016767Y-63212871D01*
X192983284Y-63151551D01*
X192988268Y-63081859D01*
X193030139Y-63025925D01*
X193061115Y-63009010D01*
X193192531Y-62959996D01*
X193307746Y-62873746D01*
X193393996Y-62758531D01*
X193444291Y-62623683D01*
X193450700Y-62564073D01*
X193450699Y-60768328D01*
X193444291Y-60708717D01*
X193422417Y-60650071D01*
X193393997Y-60573871D01*
X193393993Y-60573864D01*
X193307747Y-60458655D01*
X193307744Y-60458652D01*
X193192535Y-60372406D01*
X193192528Y-60372402D01*
X193057682Y-60322108D01*
X193057683Y-60322108D01*
X192998083Y-60315701D01*
X192998081Y-60315700D01*
X192998073Y-60315700D01*
X192998064Y-60315700D01*
X191202329Y-60315700D01*
X191202323Y-60315701D01*
X191142716Y-60322108D01*
X191007871Y-60372402D01*
X191007864Y-60372406D01*
X190892655Y-60458652D01*
X190892652Y-60458655D01*
X190806406Y-60573864D01*
X190806402Y-60573871D01*
X190756108Y-60708717D01*
X190750326Y-60762502D01*
X190749701Y-60768323D01*
X190749700Y-60768335D01*
X190749700Y-62564070D01*
X190749701Y-62564076D01*
X190756108Y-62623683D01*
X190806402Y-62758528D01*
X190806406Y-62758535D01*
X190892652Y-62873744D01*
X190892655Y-62873747D01*
X191007864Y-62959993D01*
X191007871Y-62959997D01*
X191139281Y-63009010D01*
X191195215Y-63050881D01*
X191219632Y-63116345D01*
X191204780Y-63184618D01*
X191183630Y-63212873D01*
X191061703Y-63334800D01*
X190926165Y-63528369D01*
X190926164Y-63528371D01*
X190826298Y-63742535D01*
X190826294Y-63742544D01*
X190765138Y-63970786D01*
X190765136Y-63970796D01*
X190744541Y-64206199D01*
X190744541Y-64206200D01*
X190765136Y-64441603D01*
X190765138Y-64441613D01*
X190827698Y-64675093D01*
X190825351Y-64675721D01*
X190829141Y-64735200D01*
X190795180Y-64796261D01*
X190733598Y-64829268D01*
X190708183Y-64831900D01*
X165170535Y-64831900D01*
X165103496Y-64812215D01*
X165057741Y-64759411D01*
X165047797Y-64690253D01*
X165076822Y-64626697D01*
X165130676Y-64590481D01*
X165189019Y-64570676D01*
X165334302Y-64521359D01*
X165593011Y-64393778D01*
X165832854Y-64233520D01*
X166049727Y-64043327D01*
X166239920Y-63826454D01*
X166400178Y-63586611D01*
X166527759Y-63327902D01*
X166620481Y-63054753D01*
X166676756Y-62771839D01*
X166695622Y-62484000D01*
X166676756Y-62196161D01*
X166620481Y-61913247D01*
X166527759Y-61640098D01*
X166400178Y-61381389D01*
X166319773Y-61261054D01*
X166239921Y-61141547D01*
X166049727Y-60924672D01*
X165832852Y-60734478D01*
X165593013Y-60574223D01*
X165593006Y-60574219D01*
X165334305Y-60446642D01*
X165061160Y-60353921D01*
X165061154Y-60353919D01*
X165061153Y-60353919D01*
X165061151Y-60353918D01*
X165061145Y-60353917D01*
X164778249Y-60297646D01*
X164778239Y-60297644D01*
X164490400Y-60278778D01*
X164202561Y-60297644D01*
X164202555Y-60297645D01*
X164202550Y-60297646D01*
X163919654Y-60353917D01*
X163919639Y-60353921D01*
X163646494Y-60446642D01*
X163387793Y-60574219D01*
X163387786Y-60574223D01*
X163147947Y-60734478D01*
X162931072Y-60924672D01*
X162740878Y-61141547D01*
X162580623Y-61381386D01*
X162580619Y-61381393D01*
X162453042Y-61640094D01*
X162360321Y-61913239D01*
X162360317Y-61913254D01*
X162309963Y-62166405D01*
X162304044Y-62196161D01*
X162285178Y-62484000D01*
X162295817Y-62646327D01*
X162304044Y-62771837D01*
X162304046Y-62771849D01*
X162360317Y-63054745D01*
X162360321Y-63054760D01*
X162453042Y-63327905D01*
X162580619Y-63586606D01*
X162580623Y-63586613D01*
X162740878Y-63826452D01*
X162931072Y-64043327D01*
X163147947Y-64233521D01*
X163387786Y-64393776D01*
X163387793Y-64393780D01*
X163439768Y-64419411D01*
X163646498Y-64521359D01*
X163791769Y-64570672D01*
X163850124Y-64590481D01*
X163907278Y-64630670D01*
X163933631Y-64695379D01*
X163920817Y-64764064D01*
X163872903Y-64814916D01*
X163810265Y-64831900D01*
X163253583Y-64831900D01*
X163186544Y-64812215D01*
X163165902Y-64795581D01*
X158288921Y-59918600D01*
X181792378Y-59918600D01*
X181796003Y-59973914D01*
X181811244Y-60206437D01*
X181811246Y-60206449D01*
X181867517Y-60489345D01*
X181867521Y-60489360D01*
X181960242Y-60762505D01*
X182087819Y-61021206D01*
X182087823Y-61021213D01*
X182248078Y-61261052D01*
X182438272Y-61477927D01*
X182643325Y-61657753D01*
X182655146Y-61668120D01*
X182894989Y-61828378D01*
X183153698Y-61955959D01*
X183426847Y-62048681D01*
X183709761Y-62104956D01*
X183997600Y-62123822D01*
X184285439Y-62104956D01*
X184568353Y-62048681D01*
X184841502Y-61955959D01*
X185100211Y-61828378D01*
X185340054Y-61668120D01*
X185556927Y-61477927D01*
X185747120Y-61261054D01*
X185907378Y-61021211D01*
X186034959Y-60762502D01*
X186127681Y-60489353D01*
X186183956Y-60206439D01*
X186202822Y-59918600D01*
X186183956Y-59630761D01*
X186127681Y-59347847D01*
X186034959Y-59074698D01*
X185907378Y-58815989D01*
X185805883Y-58664091D01*
X185747121Y-58576147D01*
X185556927Y-58359272D01*
X185340052Y-58169078D01*
X185100213Y-58008823D01*
X185100206Y-58008819D01*
X184841505Y-57881242D01*
X184568360Y-57788521D01*
X184568354Y-57788519D01*
X184568353Y-57788519D01*
X184568351Y-57788518D01*
X184568345Y-57788517D01*
X184285449Y-57732246D01*
X184285439Y-57732244D01*
X183997600Y-57713378D01*
X183709761Y-57732244D01*
X183709755Y-57732245D01*
X183709750Y-57732246D01*
X183426854Y-57788517D01*
X183426839Y-57788521D01*
X183153694Y-57881242D01*
X182894993Y-58008819D01*
X182894986Y-58008823D01*
X182655147Y-58169078D01*
X182438272Y-58359272D01*
X182248078Y-58576147D01*
X182087823Y-58815986D01*
X182087819Y-58815993D01*
X181960242Y-59074694D01*
X181867521Y-59347839D01*
X181867517Y-59347854D01*
X181811246Y-59630750D01*
X181811244Y-59630761D01*
X181792378Y-59918600D01*
X158288921Y-59918600D01*
X155227457Y-56857136D01*
X155193972Y-56795813D01*
X155198956Y-56726121D01*
X155240828Y-56670188D01*
X155306292Y-56645771D01*
X155347226Y-56649679D01*
X155466592Y-56681663D01*
X155592096Y-56692643D01*
X155657164Y-56718095D01*
X155668969Y-56728490D01*
X157820860Y-58880381D01*
X157820861Y-58880382D01*
X157897396Y-58956917D01*
X157960219Y-59019740D01*
X158042464Y-59074694D01*
X158124086Y-59129232D01*
X158209753Y-59164716D01*
X158306164Y-59204651D01*
X158482929Y-59239812D01*
X158499454Y-59243099D01*
X158499457Y-59243100D01*
X158499459Y-59243100D01*
X165807743Y-59243100D01*
X165892843Y-59226172D01*
X165935394Y-59217708D01*
X166001036Y-59204651D01*
X166067255Y-59177222D01*
X166183114Y-59129232D01*
X166346982Y-59019739D01*
X166486339Y-58880382D01*
X166486340Y-58880380D01*
X166493406Y-58873314D01*
X166493409Y-58873310D01*
X167210901Y-58155818D01*
X167272224Y-58122333D01*
X167298582Y-58119499D01*
X168080671Y-58119499D01*
X168080672Y-58119499D01*
X168140283Y-58113091D01*
X168275131Y-58062796D01*
X168390346Y-57976546D01*
X168476596Y-57861331D01*
X168526891Y-57726483D01*
X168533300Y-57666873D01*
X168533299Y-55871128D01*
X168526891Y-55811517D01*
X168526423Y-55810263D01*
X168476597Y-55676671D01*
X168476593Y-55676664D01*
X168390347Y-55561455D01*
X168390344Y-55561452D01*
X168275135Y-55475206D01*
X168275128Y-55475202D01*
X168143717Y-55426189D01*
X168087783Y-55384318D01*
X168063366Y-55318853D01*
X168078218Y-55250580D01*
X168099363Y-55222332D01*
X168203692Y-55118004D01*
X186744592Y-55118004D01*
X186764196Y-55379620D01*
X186764197Y-55379625D01*
X186764197Y-55379629D01*
X186764198Y-55379630D01*
X186769420Y-55402508D01*
X186822576Y-55635402D01*
X186822578Y-55635411D01*
X186822580Y-55635416D01*
X186918432Y-55879643D01*
X187049614Y-56106857D01*
X187138249Y-56218002D01*
X187213198Y-56311985D01*
X187350015Y-56438931D01*
X187405521Y-56490433D01*
X187622296Y-56638228D01*
X187622301Y-56638230D01*
X187622302Y-56638231D01*
X187622303Y-56638232D01*
X187735290Y-56692643D01*
X187858673Y-56752061D01*
X187858674Y-56752061D01*
X187858677Y-56752063D01*
X188109385Y-56829396D01*
X188368818Y-56868500D01*
X188631182Y-56868500D01*
X188890615Y-56829396D01*
X189141323Y-56752063D01*
X189373202Y-56640396D01*
X189377696Y-56638232D01*
X189377696Y-56638231D01*
X189377704Y-56638228D01*
X189594479Y-56490433D01*
X189786805Y-56311981D01*
X189950386Y-56106857D01*
X190081568Y-55879643D01*
X190177420Y-55635416D01*
X190235802Y-55379630D01*
X190235803Y-55379620D01*
X190255408Y-55118004D01*
X190255408Y-55117995D01*
X190235803Y-54856379D01*
X190235802Y-54856374D01*
X190235802Y-54856370D01*
X190177420Y-54600584D01*
X190081568Y-54356357D01*
X189950386Y-54129143D01*
X189786805Y-53924019D01*
X189786804Y-53924018D01*
X189786801Y-53924014D01*
X189594479Y-53745567D01*
X189503194Y-53683330D01*
X189377704Y-53597772D01*
X189377700Y-53597770D01*
X189377697Y-53597768D01*
X189377696Y-53597767D01*
X189141325Y-53483938D01*
X189141327Y-53483938D01*
X188890623Y-53406606D01*
X188890619Y-53406605D01*
X188890615Y-53406604D01*
X188765823Y-53387794D01*
X188631187Y-53367500D01*
X188631182Y-53367500D01*
X188368818Y-53367500D01*
X188368812Y-53367500D01*
X188207247Y-53391853D01*
X188109385Y-53406604D01*
X188109382Y-53406605D01*
X188109376Y-53406606D01*
X187858673Y-53483938D01*
X187622303Y-53597767D01*
X187622302Y-53597768D01*
X187405520Y-53745567D01*
X187213198Y-53924014D01*
X187049614Y-54129143D01*
X186918432Y-54356356D01*
X186822582Y-54600578D01*
X186822576Y-54600597D01*
X186764197Y-54856374D01*
X186764196Y-54856379D01*
X186744592Y-55117995D01*
X186744592Y-55118004D01*
X168203692Y-55118004D01*
X168221295Y-55100401D01*
X168356835Y-54906830D01*
X168456703Y-54692663D01*
X168517863Y-54464408D01*
X168538459Y-54229000D01*
X168517863Y-53993592D01*
X168456703Y-53765337D01*
X168356835Y-53551171D01*
X168322870Y-53502663D01*
X168221294Y-53357597D01*
X168054202Y-53190506D01*
X168054195Y-53190501D01*
X167860634Y-53054967D01*
X167860630Y-53054965D01*
X167848331Y-53049230D01*
X167818847Y-53035481D01*
X167766409Y-52989310D01*
X167747257Y-52922116D01*
X167767473Y-52855235D01*
X167820638Y-52809901D01*
X167871253Y-52799100D01*
X190784784Y-52799100D01*
X190851823Y-52818785D01*
G37*
%TD.AperFunction*%
%TA.AperFunction,NonConductor*%
G36*
X150922478Y-54843555D02*
G01*
X150978411Y-54885427D01*
X151002828Y-54950891D01*
X150998919Y-54991830D01*
X150966938Y-55111186D01*
X150966936Y-55111196D01*
X150946341Y-55346599D01*
X150946341Y-55346600D01*
X150966936Y-55582003D01*
X150966938Y-55582013D01*
X151028094Y-55810255D01*
X151028096Y-55810259D01*
X151028097Y-55810263D01*
X151078336Y-55918000D01*
X151127965Y-56024430D01*
X151127967Y-56024434D01*
X151210267Y-56141969D01*
X151263505Y-56218001D01*
X151430599Y-56385095D01*
X151527384Y-56452865D01*
X151624165Y-56520632D01*
X151624167Y-56520633D01*
X151624170Y-56520635D01*
X151838337Y-56620503D01*
X151838343Y-56620504D01*
X151838344Y-56620505D01*
X151893285Y-56635226D01*
X152066592Y-56681663D01*
X152192097Y-56692643D01*
X152257165Y-56718095D01*
X152268970Y-56728490D01*
X161360698Y-65820219D01*
X161394183Y-65881542D01*
X161389199Y-65951234D01*
X161347327Y-66007167D01*
X161281863Y-66031584D01*
X161273017Y-66031900D01*
X158248182Y-66031900D01*
X158181143Y-66012215D01*
X158160501Y-65995581D01*
X149073700Y-56908780D01*
X149040215Y-56847457D01*
X149045199Y-56777765D01*
X149087071Y-56721832D01*
X149152535Y-56697415D01*
X149161381Y-56697099D01*
X149799871Y-56697099D01*
X149799872Y-56697099D01*
X149859483Y-56690691D01*
X149994331Y-56640396D01*
X150109546Y-56554146D01*
X150195796Y-56438931D01*
X150246091Y-56304083D01*
X150252500Y-56244473D01*
X150252499Y-55462381D01*
X150272183Y-55395343D01*
X150288818Y-55374701D01*
X150523993Y-55139526D01*
X150791465Y-54872054D01*
X150852786Y-54838571D01*
X150922478Y-54843555D01*
G37*
%TD.AperFunction*%
%TA.AperFunction,NonConductor*%
G36*
X147126257Y-57795185D02*
G01*
X147146899Y-57811819D01*
X154001318Y-64666238D01*
X154034803Y-64727561D01*
X154029819Y-64797253D01*
X153987947Y-64853186D01*
X153966042Y-64866301D01*
X153901571Y-64896364D01*
X153901569Y-64896365D01*
X153708000Y-65031903D01*
X153586073Y-65153830D01*
X153524750Y-65187314D01*
X153455058Y-65182330D01*
X153399125Y-65140458D01*
X153382210Y-65109481D01*
X153333197Y-64978071D01*
X153333193Y-64978064D01*
X153246947Y-64862855D01*
X153246944Y-64862852D01*
X153131735Y-64776606D01*
X153131728Y-64776602D01*
X152996882Y-64726308D01*
X152996883Y-64726308D01*
X152937283Y-64719901D01*
X152937281Y-64719900D01*
X152937273Y-64719900D01*
X152937264Y-64719900D01*
X151141529Y-64719900D01*
X151141523Y-64719901D01*
X151081916Y-64726308D01*
X150947071Y-64776602D01*
X150947064Y-64776606D01*
X150831855Y-64862852D01*
X150831852Y-64862855D01*
X150745606Y-64978064D01*
X150745602Y-64978071D01*
X150695308Y-65112917D01*
X150688901Y-65172516D01*
X150688900Y-65172535D01*
X150688900Y-66968270D01*
X150688901Y-66968276D01*
X150695308Y-67027883D01*
X150745602Y-67162728D01*
X150745606Y-67162735D01*
X150831852Y-67277944D01*
X150831855Y-67277947D01*
X150947064Y-67364193D01*
X150947071Y-67364197D01*
X151081917Y-67414491D01*
X151081916Y-67414491D01*
X151088844Y-67415235D01*
X151141527Y-67420900D01*
X152937272Y-67420899D01*
X152996883Y-67414491D01*
X153131731Y-67364196D01*
X153246946Y-67277946D01*
X153333196Y-67162731D01*
X153382210Y-67031316D01*
X153424081Y-66975384D01*
X153489545Y-66950966D01*
X153557818Y-66965817D01*
X153586073Y-66986969D01*
X153707999Y-67108895D01*
X153804784Y-67176665D01*
X153901565Y-67244432D01*
X153901567Y-67244433D01*
X153901570Y-67244435D01*
X154115737Y-67344303D01*
X154343992Y-67405463D01*
X154520434Y-67420900D01*
X154579399Y-67426059D01*
X154579400Y-67426059D01*
X154579401Y-67426059D01*
X154638366Y-67420900D01*
X154814808Y-67405463D01*
X155043063Y-67344303D01*
X155257230Y-67244435D01*
X155450801Y-67108895D01*
X155617895Y-66941801D01*
X155753435Y-66748230D01*
X155783499Y-66683755D01*
X155829669Y-66631319D01*
X155896862Y-66612166D01*
X155963744Y-66632381D01*
X155983561Y-66648481D01*
X156809099Y-67474019D01*
X156842584Y-67535342D01*
X156837600Y-67605034D01*
X156795728Y-67660967D01*
X156730264Y-67685384D01*
X156721418Y-67685700D01*
X123863583Y-67685700D01*
X123796544Y-67666015D01*
X123775902Y-67649381D01*
X122349821Y-66223300D01*
X120916787Y-64790267D01*
X120883303Y-64728945D01*
X120888287Y-64659253D01*
X120930159Y-64603320D01*
X120972374Y-64582812D01*
X121180199Y-64527127D01*
X121388696Y-64429902D01*
X121457773Y-64419411D01*
X121521557Y-64447931D01*
X121559796Y-64506407D01*
X121565100Y-64542281D01*
X121565100Y-64570668D01*
X121565101Y-64570676D01*
X121571508Y-64630283D01*
X121621802Y-64765128D01*
X121621806Y-64765135D01*
X121708052Y-64880344D01*
X121708055Y-64880347D01*
X121823264Y-64966593D01*
X121823271Y-64966597D01*
X121958117Y-65016891D01*
X121958116Y-65016891D01*
X121965044Y-65017635D01*
X122017727Y-65023300D01*
X122799817Y-65023299D01*
X122866856Y-65042983D01*
X122887498Y-65059618D01*
X123685335Y-65857455D01*
X123685364Y-65857486D01*
X123827817Y-65999939D01*
X123991680Y-66109428D01*
X123991686Y-66109432D01*
X124079410Y-66145768D01*
X124173764Y-66184851D01*
X124270412Y-66204075D01*
X124318735Y-66213687D01*
X124367058Y-66223300D01*
X124367059Y-66223300D01*
X143875742Y-66223300D01*
X143895070Y-66219455D01*
X143972388Y-66204075D01*
X144069036Y-66184851D01*
X144163390Y-66145768D01*
X144251114Y-66109432D01*
X144414982Y-65999939D01*
X144554339Y-65860582D01*
X144554340Y-65860579D01*
X144878103Y-65536817D01*
X144939425Y-65503334D01*
X144965783Y-65500500D01*
X146185872Y-65500500D01*
X146198025Y-65501096D01*
X146241116Y-65505341D01*
X146284206Y-65501096D01*
X146296360Y-65500500D01*
X146339658Y-65500500D01*
X146355570Y-65497334D01*
X146382121Y-65492053D01*
X146394153Y-65490268D01*
X146437248Y-65486024D01*
X146478696Y-65473450D01*
X146490469Y-65470500D01*
X146532951Y-65462051D01*
X146572963Y-65445476D01*
X146584396Y-65441386D01*
X146625843Y-65428814D01*
X146664034Y-65408399D01*
X146675022Y-65403202D01*
X146715030Y-65386632D01*
X146751054Y-65362560D01*
X146761467Y-65356320D01*
X146787707Y-65342295D01*
X146799651Y-65335912D01*
X146799655Y-65335909D01*
X146833121Y-65308444D01*
X146842898Y-65301193D01*
X146878897Y-65277140D01*
X146878899Y-65277138D01*
X146878899Y-65277137D01*
X146909524Y-65246512D01*
X146918518Y-65238359D01*
X146951999Y-65210883D01*
X146979475Y-65177402D01*
X146987628Y-65168408D01*
X147018255Y-65137782D01*
X147042309Y-65101781D01*
X147049560Y-65092005D01*
X147063000Y-65075627D01*
X147077026Y-65058538D01*
X147097436Y-65020351D01*
X147103676Y-65009938D01*
X147127748Y-64973914D01*
X147144318Y-64933906D01*
X147149515Y-64922918D01*
X147169930Y-64884727D01*
X147182502Y-64843280D01*
X147186592Y-64831847D01*
X147203167Y-64791835D01*
X147211616Y-64749353D01*
X147214566Y-64737580D01*
X147227140Y-64696132D01*
X147231384Y-64653037D01*
X147233170Y-64640999D01*
X147241616Y-64598541D01*
X147241616Y-64555244D01*
X147242213Y-64543090D01*
X147244353Y-64521359D01*
X147246457Y-64500000D01*
X147242213Y-64456907D01*
X147241616Y-64444754D01*
X147241616Y-64401457D01*
X147241066Y-64398693D01*
X147241198Y-64397214D01*
X147241019Y-64395394D01*
X147241364Y-64395360D01*
X147247293Y-64329101D01*
X147290155Y-64273923D01*
X147356045Y-64250678D01*
X147362683Y-64250500D01*
X148444756Y-64250500D01*
X148456909Y-64251096D01*
X148500000Y-64255341D01*
X148543090Y-64251096D01*
X148555244Y-64250500D01*
X148598542Y-64250500D01*
X148614454Y-64247334D01*
X148641005Y-64242053D01*
X148653037Y-64240268D01*
X148696132Y-64236024D01*
X148737580Y-64223450D01*
X148749353Y-64220500D01*
X148791835Y-64212051D01*
X148831847Y-64195476D01*
X148843280Y-64191386D01*
X148884727Y-64178814D01*
X148922918Y-64158399D01*
X148933906Y-64153202D01*
X148973914Y-64136632D01*
X149009938Y-64112560D01*
X149020351Y-64106320D01*
X149055150Y-64087721D01*
X149058535Y-64085912D01*
X149058539Y-64085909D01*
X149092005Y-64058444D01*
X149101782Y-64051193D01*
X149137781Y-64027140D01*
X149137783Y-64027138D01*
X149156034Y-64008886D01*
X149168408Y-63996512D01*
X149177402Y-63988359D01*
X149210883Y-63960883D01*
X149238359Y-63927402D01*
X149246512Y-63918408D01*
X149277139Y-63887782D01*
X149301193Y-63851781D01*
X149308444Y-63842005D01*
X149335909Y-63808539D01*
X149335912Y-63808535D01*
X149342295Y-63796591D01*
X149356320Y-63770351D01*
X149362560Y-63759938D01*
X149386632Y-63723914D01*
X149403202Y-63683906D01*
X149408399Y-63672918D01*
X149428814Y-63634727D01*
X149441386Y-63593280D01*
X149445476Y-63581847D01*
X149462051Y-63541835D01*
X149470500Y-63499353D01*
X149473450Y-63487580D01*
X149486024Y-63446132D01*
X149490268Y-63403037D01*
X149492054Y-63390999D01*
X149500500Y-63348541D01*
X149500500Y-63305244D01*
X149501097Y-63293090D01*
X149505341Y-63250000D01*
X149501097Y-63206907D01*
X149500500Y-63194754D01*
X149500500Y-63151458D01*
X149493515Y-63116345D01*
X149492052Y-63108990D01*
X149490268Y-63096961D01*
X149486024Y-63053869D01*
X149480663Y-63036197D01*
X149473448Y-63012414D01*
X149470499Y-63000640D01*
X149462051Y-62958165D01*
X149445480Y-62918160D01*
X149441382Y-62906706D01*
X149431384Y-62873746D01*
X149428814Y-62865273D01*
X149408404Y-62827091D01*
X149403201Y-62816090D01*
X149386632Y-62776086D01*
X149362572Y-62740078D01*
X149356316Y-62729640D01*
X149335911Y-62691464D01*
X149335910Y-62691462D01*
X149308438Y-62657988D01*
X149301194Y-62648219D01*
X149295891Y-62640283D01*
X149277139Y-62612218D01*
X149277136Y-62612214D01*
X149246520Y-62581599D01*
X149238346Y-62572581D01*
X149231356Y-62564064D01*
X149210883Y-62539117D01*
X149177416Y-62511651D01*
X149168401Y-62503479D01*
X149137787Y-62472865D01*
X149137783Y-62472862D01*
X149130565Y-62468039D01*
X149119802Y-62460847D01*
X149101772Y-62448799D01*
X149092002Y-62441552D01*
X149058543Y-62414094D01*
X149058535Y-62414088D01*
X149041436Y-62404948D01*
X149020350Y-62393678D01*
X149009918Y-62387425D01*
X148973918Y-62363370D01*
X148973914Y-62363368D01*
X148933915Y-62346800D01*
X148922913Y-62341597D01*
X148884729Y-62321187D01*
X148884728Y-62321186D01*
X148884727Y-62321186D01*
X148843277Y-62308612D01*
X148831834Y-62304517D01*
X148791834Y-62287948D01*
X148791827Y-62287946D01*
X148749378Y-62279503D01*
X148737575Y-62276547D01*
X148696134Y-62263976D01*
X148696130Y-62263975D01*
X148653035Y-62259730D01*
X148641006Y-62257945D01*
X148598544Y-62249500D01*
X148598541Y-62249500D01*
X148555244Y-62249500D01*
X148543090Y-62248903D01*
X148500000Y-62244659D01*
X148456910Y-62248903D01*
X148444756Y-62249500D01*
X141512295Y-62249500D01*
X141445256Y-62229815D01*
X141399501Y-62177011D01*
X141389557Y-62107853D01*
X141418582Y-62044297D01*
X141424614Y-62037819D01*
X141883431Y-61579002D01*
X143387778Y-60074654D01*
X143387782Y-60074652D01*
X143527139Y-59935295D01*
X143636632Y-59771427D01*
X143702102Y-59613368D01*
X143712051Y-59589349D01*
X143738350Y-59457134D01*
X143750500Y-59396054D01*
X143750500Y-58188769D01*
X143770185Y-58121730D01*
X143822989Y-58075975D01*
X143892147Y-58066031D01*
X143917833Y-58072587D01*
X144042517Y-58119091D01*
X144042516Y-58119091D01*
X144049444Y-58119835D01*
X144102127Y-58125500D01*
X145897872Y-58125499D01*
X145957483Y-58119091D01*
X146092331Y-58068796D01*
X146207546Y-57982546D01*
X146293796Y-57867331D01*
X146297960Y-57856165D01*
X146339829Y-57800234D01*
X146405293Y-57775816D01*
X146414141Y-57775500D01*
X147059218Y-57775500D01*
X147126257Y-57795185D01*
G37*
%TD.AperFunction*%
%TA.AperFunction,NonConductor*%
G36*
X140243094Y-52818785D02*
G01*
X140288849Y-52871589D01*
X140298793Y-52940747D01*
X140269768Y-53004303D01*
X140247178Y-53024675D01*
X140128597Y-53107705D01*
X139961505Y-53274797D01*
X139825965Y-53468369D01*
X139825964Y-53468371D01*
X139726098Y-53682535D01*
X139726094Y-53682544D01*
X139664938Y-53910786D01*
X139664936Y-53910796D01*
X139644341Y-54146199D01*
X139644341Y-54146200D01*
X139664936Y-54381603D01*
X139664938Y-54381613D01*
X139726094Y-54609855D01*
X139726096Y-54609859D01*
X139726097Y-54609863D01*
X139767506Y-54698664D01*
X139825965Y-54824030D01*
X139825967Y-54824034D01*
X139961501Y-55017595D01*
X139961506Y-55017602D01*
X140083430Y-55139526D01*
X140116915Y-55200849D01*
X140111931Y-55270541D01*
X140070059Y-55326474D01*
X140039083Y-55343389D01*
X139907669Y-55392403D01*
X139907664Y-55392406D01*
X139792455Y-55478652D01*
X139792452Y-55478655D01*
X139706206Y-55593864D01*
X139706202Y-55593871D01*
X139655908Y-55728717D01*
X139649501Y-55788316D01*
X139649500Y-55788335D01*
X139649500Y-57584070D01*
X139649501Y-57584076D01*
X139656738Y-57651396D01*
X139653999Y-57651690D01*
X139650951Y-57708354D01*
X139610075Y-57765019D01*
X139545052Y-57790588D01*
X139494164Y-57784499D01*
X139356365Y-57737722D01*
X139356345Y-57737717D01*
X139073449Y-57681446D01*
X139073439Y-57681444D01*
X138785600Y-57662578D01*
X138497761Y-57681444D01*
X138497755Y-57681445D01*
X138497750Y-57681446D01*
X138214854Y-57737717D01*
X138214839Y-57737721D01*
X137941694Y-57830442D01*
X137682993Y-57958019D01*
X137682986Y-57958023D01*
X137443147Y-58118278D01*
X137226272Y-58308472D01*
X137036078Y-58525347D01*
X136875823Y-58765186D01*
X136875819Y-58765193D01*
X136748242Y-59023894D01*
X136655521Y-59297039D01*
X136655517Y-59297054D01*
X136599246Y-59579950D01*
X136599244Y-59579961D01*
X136580378Y-59867800D01*
X136598542Y-60144935D01*
X136599244Y-60155637D01*
X136599246Y-60155649D01*
X136655517Y-60438545D01*
X136655521Y-60438560D01*
X136748242Y-60711705D01*
X136875819Y-60970406D01*
X136875823Y-60970413D01*
X137036078Y-61210252D01*
X137085442Y-61266541D01*
X137114845Y-61329923D01*
X137105313Y-61399139D01*
X137059873Y-61452215D01*
X136992952Y-61472298D01*
X136992214Y-61472300D01*
X134533415Y-61472300D01*
X134466376Y-61452615D01*
X134445738Y-61435985D01*
X134355414Y-61345661D01*
X134355413Y-61345660D01*
X134355412Y-61345659D01*
X134191549Y-61236169D01*
X134191546Y-61236168D01*
X134059468Y-61181460D01*
X134009468Y-61160749D01*
X134009460Y-61160747D01*
X133894000Y-61137781D01*
X133816175Y-61122300D01*
X133816173Y-61122300D01*
X121475740Y-61122300D01*
X121278659Y-61122300D01*
X121278656Y-61122300D01*
X121085371Y-61160747D01*
X121085363Y-61160749D01*
X121035361Y-61181461D01*
X121035360Y-61181461D01*
X120903292Y-61236164D01*
X120903277Y-61236172D01*
X120854920Y-61268485D01*
X120854918Y-61268486D01*
X120739422Y-61345657D01*
X120739414Y-61345663D01*
X120226897Y-61858182D01*
X120078755Y-62006324D01*
X120078753Y-62006326D01*
X119994555Y-62090524D01*
X119936918Y-62148161D01*
X119920362Y-62162053D01*
X119845137Y-62214727D01*
X119845131Y-62214732D01*
X119678042Y-62381820D01*
X119653253Y-62417223D01*
X119598676Y-62460847D01*
X119529177Y-62468039D01*
X119466823Y-62436516D01*
X119439716Y-62399392D01*
X119412206Y-62341597D01*
X119379870Y-62273664D01*
X119283906Y-62166405D01*
X119283905Y-62166404D01*
X119283902Y-62166401D01*
X119161615Y-62090525D01*
X119161614Y-62090524D01*
X119161613Y-62090524D01*
X119075898Y-62066827D01*
X119022895Y-62052174D01*
X119018897Y-62052094D01*
X118962952Y-62050984D01*
X118962949Y-62050984D01*
X118962938Y-62050984D01*
X117174049Y-62207493D01*
X117174030Y-62207496D01*
X117115216Y-62219073D01*
X117115213Y-62219074D01*
X116985263Y-62280930D01*
X116878001Y-62376897D01*
X116802125Y-62499184D01*
X116802124Y-62499186D01*
X116802124Y-62499187D01*
X116799746Y-62507789D01*
X116763774Y-62637904D01*
X116763774Y-62637906D01*
X116762628Y-62695663D01*
X116762584Y-62697861D01*
X116919093Y-64486750D01*
X116919096Y-64486769D01*
X116930673Y-64545583D01*
X116930674Y-64545586D01*
X116984779Y-64659253D01*
X116992530Y-64675536D01*
X117072687Y-64765128D01*
X117088497Y-64782798D01*
X117197517Y-64850442D01*
X117210787Y-64858676D01*
X117349506Y-64897026D01*
X117409448Y-64898216D01*
X117409459Y-64898214D01*
X117409460Y-64898215D01*
X117451171Y-64894565D01*
X118074104Y-64840064D01*
X118142602Y-64853830D01*
X118172590Y-64875910D01*
X122620660Y-69323981D01*
X122620661Y-69323982D01*
X122760018Y-69463339D01*
X122923886Y-69572832D01*
X123030545Y-69617011D01*
X123105964Y-69648251D01*
X123299254Y-69686699D01*
X123299257Y-69686700D01*
X123299259Y-69686700D01*
X123496340Y-69686700D01*
X123722100Y-69686700D01*
X123789139Y-69706385D01*
X123834894Y-69759189D01*
X123846100Y-69810700D01*
X123846100Y-71230470D01*
X123846101Y-71230476D01*
X123852508Y-71290083D01*
X123902802Y-71424928D01*
X123902806Y-71424935D01*
X123989052Y-71540144D01*
X123989055Y-71540147D01*
X124104264Y-71626393D01*
X124104271Y-71626397D01*
X124239117Y-71676691D01*
X124239116Y-71676691D01*
X124246044Y-71677435D01*
X124298727Y-71683100D01*
X126094472Y-71683099D01*
X126154083Y-71676691D01*
X126288931Y-71626396D01*
X126404146Y-71540146D01*
X126490396Y-71424931D01*
X126539410Y-71293516D01*
X126581281Y-71237584D01*
X126646745Y-71213166D01*
X126715018Y-71228017D01*
X126743273Y-71249169D01*
X126865199Y-71371095D01*
X126961984Y-71438865D01*
X127058765Y-71506632D01*
X127058767Y-71506633D01*
X127058770Y-71506635D01*
X127272937Y-71606503D01*
X127501192Y-71667663D01*
X127677634Y-71683100D01*
X127736599Y-71688259D01*
X127736600Y-71688259D01*
X127736601Y-71688259D01*
X127795566Y-71683100D01*
X127972008Y-71667663D01*
X128200263Y-71606503D01*
X128414430Y-71506635D01*
X128608001Y-71371095D01*
X128775095Y-71204001D01*
X128905025Y-71018442D01*
X128959602Y-70974817D01*
X129029100Y-70967623D01*
X129091455Y-70999146D01*
X129108175Y-71018442D01*
X129238100Y-71203995D01*
X129238105Y-71204001D01*
X129405199Y-71371095D01*
X129501984Y-71438865D01*
X129598765Y-71506632D01*
X129598767Y-71506633D01*
X129598770Y-71506635D01*
X129812937Y-71606503D01*
X130041192Y-71667663D01*
X130217634Y-71683100D01*
X130276599Y-71688259D01*
X130276600Y-71688259D01*
X130276601Y-71688259D01*
X130335566Y-71683100D01*
X130512008Y-71667663D01*
X130740263Y-71606503D01*
X130954430Y-71506635D01*
X131148001Y-71371095D01*
X131315095Y-71204001D01*
X131445025Y-71018442D01*
X131499602Y-70974817D01*
X131569100Y-70967623D01*
X131631455Y-70999146D01*
X131648175Y-71018442D01*
X131778100Y-71203995D01*
X131778105Y-71204001D01*
X131945199Y-71371095D01*
X132041984Y-71438865D01*
X132138765Y-71506632D01*
X132138767Y-71506633D01*
X132138770Y-71506635D01*
X132352937Y-71606503D01*
X132581192Y-71667663D01*
X132757634Y-71683100D01*
X132816599Y-71688259D01*
X132816600Y-71688259D01*
X132816601Y-71688259D01*
X132875566Y-71683100D01*
X133052008Y-71667663D01*
X133280263Y-71606503D01*
X133494430Y-71506635D01*
X133688001Y-71371095D01*
X133855095Y-71204001D01*
X133990635Y-71010430D01*
X134090503Y-70796263D01*
X134151663Y-70568008D01*
X134172259Y-70332600D01*
X134151663Y-70097192D01*
X134090503Y-69868937D01*
X134087783Y-69863105D01*
X134077291Y-69794030D01*
X134105809Y-69730246D01*
X134164284Y-69692005D01*
X134200165Y-69686700D01*
X216324221Y-69686700D01*
X216343549Y-69682855D01*
X216420867Y-69667475D01*
X216517515Y-69648251D01*
X216570844Y-69626161D01*
X216699593Y-69572832D01*
X216863461Y-69463339D01*
X217002818Y-69323982D01*
X217002818Y-69323980D01*
X217013026Y-69313773D01*
X217013027Y-69313770D01*
X225145340Y-61181460D01*
X225254832Y-61017593D01*
X225330252Y-60835514D01*
X225368700Y-60642219D01*
X225368700Y-60445138D01*
X225368700Y-58923558D01*
X225388385Y-58856519D01*
X225405019Y-58835877D01*
X225405076Y-58835820D01*
X225406695Y-58834201D01*
X225536625Y-58648642D01*
X225591202Y-58605017D01*
X225660700Y-58597823D01*
X225723055Y-58629346D01*
X225739775Y-58648642D01*
X225869700Y-58834195D01*
X225869705Y-58834201D01*
X226036799Y-59001295D01*
X226129340Y-59066093D01*
X226230365Y-59136832D01*
X226230367Y-59136833D01*
X226230370Y-59136835D01*
X226444537Y-59236703D01*
X226672792Y-59297863D01*
X226861118Y-59314339D01*
X226908199Y-59318459D01*
X226908200Y-59318459D01*
X226908201Y-59318459D01*
X226947434Y-59315026D01*
X227143608Y-59297863D01*
X227371863Y-59236703D01*
X227586030Y-59136835D01*
X227779601Y-59001295D01*
X227946695Y-58834201D01*
X228076625Y-58648642D01*
X228131202Y-58605017D01*
X228200700Y-58597823D01*
X228263055Y-58629346D01*
X228279775Y-58648642D01*
X228409700Y-58834195D01*
X228409705Y-58834201D01*
X228576799Y-59001295D01*
X228669340Y-59066093D01*
X228770365Y-59136832D01*
X228770367Y-59136833D01*
X228770370Y-59136835D01*
X228984537Y-59236703D01*
X229212792Y-59297863D01*
X229401118Y-59314339D01*
X229448199Y-59318459D01*
X229448200Y-59318459D01*
X229448201Y-59318459D01*
X229487434Y-59315026D01*
X229683608Y-59297863D01*
X229911863Y-59236703D01*
X230126030Y-59136835D01*
X230319601Y-59001295D01*
X230486695Y-58834201D01*
X230622235Y-58640630D01*
X230722103Y-58426463D01*
X230783263Y-58198208D01*
X230803859Y-57962800D01*
X230783263Y-57727392D01*
X230722103Y-57499137D01*
X230622235Y-57284971D01*
X230621174Y-57283455D01*
X230486694Y-57091397D01*
X230319602Y-56924306D01*
X230319595Y-56924301D01*
X230126034Y-56788767D01*
X230126030Y-56788765D01*
X230053314Y-56754857D01*
X229911863Y-56688897D01*
X229911859Y-56688896D01*
X229911855Y-56688894D01*
X229683613Y-56627738D01*
X229683603Y-56627736D01*
X229448201Y-56607141D01*
X229448199Y-56607141D01*
X229212796Y-56627736D01*
X229212786Y-56627738D01*
X228984544Y-56688894D01*
X228984535Y-56688898D01*
X228770371Y-56788764D01*
X228770369Y-56788765D01*
X228576797Y-56924305D01*
X228409705Y-57091397D01*
X228279775Y-57276958D01*
X228225198Y-57320583D01*
X228155700Y-57327777D01*
X228093345Y-57296254D01*
X228076625Y-57276958D01*
X227946694Y-57091397D01*
X227779602Y-56924306D01*
X227779595Y-56924301D01*
X227586034Y-56788767D01*
X227586030Y-56788765D01*
X227513314Y-56754857D01*
X227371863Y-56688897D01*
X227371859Y-56688896D01*
X227371855Y-56688894D01*
X227143613Y-56627738D01*
X227143603Y-56627736D01*
X227018100Y-56616755D01*
X226953032Y-56591302D01*
X226941228Y-56580908D01*
X226139679Y-55779359D01*
X226139659Y-55779337D01*
X225995985Y-55635663D01*
X225995981Y-55635660D01*
X225832117Y-55526169D01*
X225690198Y-55467385D01*
X225690195Y-55467383D01*
X225650040Y-55450750D01*
X225650028Y-55450747D01*
X225518079Y-55424501D01*
X225477187Y-55416367D01*
X225456742Y-55412300D01*
X225456741Y-55412300D01*
X225358758Y-55412300D01*
X225291719Y-55392615D01*
X225245964Y-55339811D01*
X225236020Y-55270653D01*
X225265045Y-55207097D01*
X225271077Y-55200619D01*
X225294026Y-55177670D01*
X225355895Y-55115801D01*
X225485825Y-54930242D01*
X225540402Y-54886617D01*
X225609900Y-54879423D01*
X225672255Y-54910946D01*
X225688975Y-54930242D01*
X225818900Y-55115795D01*
X225818905Y-55115801D01*
X225985999Y-55282895D01*
X226070031Y-55341735D01*
X226179565Y-55418432D01*
X226179567Y-55418433D01*
X226179570Y-55418435D01*
X226393737Y-55518303D01*
X226393743Y-55518304D01*
X226393744Y-55518305D01*
X226423101Y-55526171D01*
X226621992Y-55579463D01*
X226810318Y-55595939D01*
X226857399Y-55600059D01*
X226857400Y-55600059D01*
X226857401Y-55600059D01*
X226896634Y-55596626D01*
X227092808Y-55579463D01*
X227321063Y-55518303D01*
X227535230Y-55418435D01*
X227728801Y-55282895D01*
X227895895Y-55115801D01*
X228025825Y-54930242D01*
X228080402Y-54886617D01*
X228149900Y-54879423D01*
X228212255Y-54910946D01*
X228228975Y-54930242D01*
X228358900Y-55115795D01*
X228358905Y-55115801D01*
X228525999Y-55282895D01*
X228610031Y-55341735D01*
X228719565Y-55418432D01*
X228719567Y-55418433D01*
X228719570Y-55418435D01*
X228933737Y-55518303D01*
X228933743Y-55518304D01*
X228933744Y-55518305D01*
X228963101Y-55526171D01*
X229161992Y-55579463D01*
X229350318Y-55595939D01*
X229397399Y-55600059D01*
X229397400Y-55600059D01*
X229397401Y-55600059D01*
X229436634Y-55596626D01*
X229632808Y-55579463D01*
X229861063Y-55518303D01*
X230075230Y-55418435D01*
X230268801Y-55282895D01*
X230435895Y-55115801D01*
X230571435Y-54922230D01*
X230671303Y-54708063D01*
X230732463Y-54479808D01*
X230753059Y-54244400D01*
X230732463Y-54008992D01*
X230671303Y-53780737D01*
X230571435Y-53566571D01*
X230565825Y-53558558D01*
X230435894Y-53372997D01*
X230268802Y-53205906D01*
X230268795Y-53205901D01*
X230260450Y-53200058D01*
X230191918Y-53152071D01*
X230075234Y-53070367D01*
X230075230Y-53070365D01*
X230055072Y-53060965D01*
X230000422Y-53035481D01*
X229947984Y-52989310D01*
X229928832Y-52922116D01*
X229949048Y-52855235D01*
X230002213Y-52809900D01*
X230052828Y-52799100D01*
X233849631Y-52799100D01*
X233916670Y-52818785D01*
X233962425Y-52871589D01*
X233973631Y-52923100D01*
X233973631Y-60619491D01*
X234007739Y-60746787D01*
X234020176Y-60768328D01*
X234073631Y-60860914D01*
X234166817Y-60954100D01*
X234261077Y-61008521D01*
X234276784Y-61017590D01*
X234280945Y-61019992D01*
X234408239Y-61054100D01*
X234540023Y-61054100D01*
X237659631Y-61054100D01*
X237726670Y-61073785D01*
X237772425Y-61126589D01*
X237783631Y-61178100D01*
X237783631Y-67277745D01*
X237763946Y-67344784D01*
X237711142Y-67390539D01*
X237641984Y-67400483D01*
X237584145Y-67376121D01*
X237430293Y-67258067D01*
X237430292Y-67258066D01*
X237430289Y-67258064D01*
X237220212Y-67136776D01*
X237220205Y-67136773D01*
X236996104Y-67043947D01*
X236761785Y-66981161D01*
X236521289Y-66949500D01*
X236521288Y-66949500D01*
X236278712Y-66949500D01*
X236278711Y-66949500D01*
X236038214Y-66981161D01*
X235803895Y-67043947D01*
X235579794Y-67136773D01*
X235579785Y-67136777D01*
X235369706Y-67258067D01*
X235177263Y-67405733D01*
X235177256Y-67405739D01*
X235005739Y-67577256D01*
X235005733Y-67577263D01*
X234858067Y-67769706D01*
X234736777Y-67979785D01*
X234736773Y-67979794D01*
X234643947Y-68203895D01*
X234581161Y-68438214D01*
X234549500Y-68678711D01*
X234549500Y-68921288D01*
X234581161Y-69161785D01*
X234643947Y-69396104D01*
X234736773Y-69620205D01*
X234736777Y-69620214D01*
X234740211Y-69626161D01*
X234858064Y-69830289D01*
X234858066Y-69830292D01*
X234858067Y-69830293D01*
X235005733Y-70022736D01*
X235005739Y-70022743D01*
X235177256Y-70194260D01*
X235177263Y-70194266D01*
X235215854Y-70223878D01*
X235369711Y-70341936D01*
X235579788Y-70463224D01*
X235803900Y-70556054D01*
X236038211Y-70618838D01*
X236218586Y-70642584D01*
X236278711Y-70650500D01*
X236278712Y-70650500D01*
X236521289Y-70650500D01*
X236569388Y-70644167D01*
X236761789Y-70618838D01*
X236996100Y-70556054D01*
X237220212Y-70463224D01*
X237430289Y-70341936D01*
X237584147Y-70223876D01*
X237649314Y-70198684D01*
X237717758Y-70212722D01*
X237767748Y-70261536D01*
X237783631Y-70322254D01*
X237783631Y-76439100D01*
X237763946Y-76506139D01*
X237711142Y-76551894D01*
X237659631Y-76563100D01*
X234408239Y-76563100D01*
X234280943Y-76597208D01*
X234166817Y-76663100D01*
X234166814Y-76663102D01*
X234073633Y-76756283D01*
X234073631Y-76756286D01*
X234007739Y-76870412D01*
X233973631Y-76997708D01*
X233973631Y-84694100D01*
X233953946Y-84761139D01*
X233901142Y-84806894D01*
X233849631Y-84818100D01*
X132901400Y-84818100D01*
X132890593Y-84817628D01*
X53648893Y-77884879D01*
X53583824Y-77859427D01*
X53542845Y-77802836D01*
X53535700Y-77761351D01*
X53535700Y-75514200D01*
X86389978Y-75514200D01*
X86405943Y-75757786D01*
X86408844Y-75802037D01*
X86408846Y-75802049D01*
X86465117Y-76084945D01*
X86465121Y-76084960D01*
X86557842Y-76358105D01*
X86685419Y-76616806D01*
X86685423Y-76616813D01*
X86845678Y-76856652D01*
X87035872Y-77073527D01*
X87152271Y-77175606D01*
X87252746Y-77263720D01*
X87492589Y-77423978D01*
X87751298Y-77551559D01*
X88024447Y-77644281D01*
X88307361Y-77700556D01*
X88595200Y-77719422D01*
X88883039Y-77700556D01*
X89165953Y-77644281D01*
X89439102Y-77551559D01*
X89697811Y-77423978D01*
X89937654Y-77263720D01*
X90154527Y-77073527D01*
X90341435Y-76860400D01*
X130738378Y-76860400D01*
X130757244Y-77148237D01*
X130757246Y-77148249D01*
X130813517Y-77431145D01*
X130813521Y-77431160D01*
X130906242Y-77704305D01*
X131033819Y-77963006D01*
X131033823Y-77963013D01*
X131194078Y-78202852D01*
X131384272Y-78419727D01*
X131601147Y-78609921D01*
X131786994Y-78734100D01*
X131840989Y-78770178D01*
X132099698Y-78897759D01*
X132372847Y-78990481D01*
X132655761Y-79046756D01*
X132943600Y-79065622D01*
X133231439Y-79046756D01*
X133514353Y-78990481D01*
X133787502Y-78897759D01*
X134046211Y-78770178D01*
X134286054Y-78609920D01*
X134502927Y-78419727D01*
X134693120Y-78202854D01*
X134853378Y-77963011D01*
X134980959Y-77704302D01*
X135073681Y-77431153D01*
X135129956Y-77148239D01*
X135148822Y-76860400D01*
X135129956Y-76572561D01*
X135073681Y-76289647D01*
X134980959Y-76016498D01*
X134853378Y-75757789D01*
X134850433Y-75753381D01*
X134792448Y-75666600D01*
X136529578Y-75666600D01*
X136548444Y-75954437D01*
X136548446Y-75954449D01*
X136604717Y-76237345D01*
X136604721Y-76237360D01*
X136697442Y-76510505D01*
X136825019Y-76769206D01*
X136825023Y-76769213D01*
X136985278Y-77009052D01*
X137175472Y-77225927D01*
X137392347Y-77416121D01*
X137464153Y-77464100D01*
X137632189Y-77576378D01*
X137890898Y-77703959D01*
X138164047Y-77796681D01*
X138446961Y-77852956D01*
X138734800Y-77871822D01*
X139022639Y-77852956D01*
X139305553Y-77796681D01*
X139578702Y-77703959D01*
X139837411Y-77576378D01*
X140077254Y-77416120D01*
X140294127Y-77225927D01*
X140484320Y-77009054D01*
X140644578Y-76769211D01*
X140772159Y-76510502D01*
X140791339Y-76454000D01*
X162335978Y-76454000D01*
X162354844Y-76741837D01*
X162354846Y-76741849D01*
X162411117Y-77024745D01*
X162411121Y-77024760D01*
X162503842Y-77297905D01*
X162631419Y-77556606D01*
X162631423Y-77556613D01*
X162791678Y-77796452D01*
X162981872Y-78013327D01*
X163198747Y-78203521D01*
X163426380Y-78355620D01*
X163438589Y-78363778D01*
X163697298Y-78491359D01*
X163970447Y-78584081D01*
X164253361Y-78640356D01*
X164541200Y-78659222D01*
X164829039Y-78640356D01*
X165111953Y-78584081D01*
X165385102Y-78491359D01*
X165643811Y-78363778D01*
X165883654Y-78203520D01*
X166100527Y-78013327D01*
X166290720Y-77796454D01*
X166450978Y-77556611D01*
X166578559Y-77297902D01*
X166671281Y-77024753D01*
X166727556Y-76741839D01*
X166746422Y-76454000D01*
X166727556Y-76166161D01*
X166709025Y-76073000D01*
X181995578Y-76073000D01*
X182003473Y-76193461D01*
X182014444Y-76360837D01*
X182014446Y-76360849D01*
X182070717Y-76643745D01*
X182070721Y-76643760D01*
X182163442Y-76916905D01*
X182291019Y-77175606D01*
X182291023Y-77175613D01*
X182451278Y-77415452D01*
X182641472Y-77632327D01*
X182858347Y-77822521D01*
X182936852Y-77874976D01*
X183098189Y-77982778D01*
X183356898Y-78110359D01*
X183630047Y-78203081D01*
X183912961Y-78259356D01*
X184200800Y-78278222D01*
X184488639Y-78259356D01*
X184771553Y-78203081D01*
X185044702Y-78110359D01*
X185303411Y-77982778D01*
X185543254Y-77822520D01*
X185760127Y-77632327D01*
X185950320Y-77415454D01*
X186110578Y-77175611D01*
X186238159Y-76916902D01*
X186330881Y-76643753D01*
X186387156Y-76360839D01*
X186406022Y-76073000D01*
X186387156Y-75785161D01*
X186330881Y-75502247D01*
X186238159Y-75229098D01*
X186110578Y-74970389D01*
X186011894Y-74822698D01*
X185950321Y-74730547D01*
X185760127Y-74513672D01*
X185543252Y-74323478D01*
X185303413Y-74163223D01*
X185303406Y-74163219D01*
X185044705Y-74035642D01*
X184771560Y-73942921D01*
X184771554Y-73942919D01*
X184771553Y-73942919D01*
X184771551Y-73942918D01*
X184771545Y-73942917D01*
X184488649Y-73886646D01*
X184488639Y-73886644D01*
X184200800Y-73867778D01*
X183912961Y-73886644D01*
X183912955Y-73886645D01*
X183912950Y-73886646D01*
X183630054Y-73942917D01*
X183630039Y-73942921D01*
X183356894Y-74035642D01*
X183098193Y-74163219D01*
X183098186Y-74163223D01*
X182858347Y-74323478D01*
X182641472Y-74513672D01*
X182451278Y-74730547D01*
X182291023Y-74970386D01*
X182291019Y-74970393D01*
X182163442Y-75229094D01*
X182070721Y-75502239D01*
X182070717Y-75502254D01*
X182019888Y-75757793D01*
X182014444Y-75785161D01*
X181995578Y-76073000D01*
X166709025Y-76073000D01*
X166671281Y-75883247D01*
X166578559Y-75610098D01*
X166450978Y-75351389D01*
X166290720Y-75111546D01*
X166290134Y-75110878D01*
X166100527Y-74894672D01*
X165883652Y-74704478D01*
X165643813Y-74544223D01*
X165643806Y-74544219D01*
X165385105Y-74416642D01*
X165111960Y-74323921D01*
X165111954Y-74323919D01*
X165111953Y-74323919D01*
X165111951Y-74323918D01*
X165111945Y-74323917D01*
X164829049Y-74267646D01*
X164829039Y-74267644D01*
X164541200Y-74248778D01*
X164253361Y-74267644D01*
X164253355Y-74267645D01*
X164253350Y-74267646D01*
X163970454Y-74323917D01*
X163970439Y-74323921D01*
X163697294Y-74416642D01*
X163438593Y-74544219D01*
X163438586Y-74544223D01*
X163198747Y-74704478D01*
X162981872Y-74894672D01*
X162791678Y-75111547D01*
X162631423Y-75351386D01*
X162631419Y-75351393D01*
X162503842Y-75610094D01*
X162411121Y-75883239D01*
X162411117Y-75883254D01*
X162370999Y-76084945D01*
X162354844Y-76166161D01*
X162342263Y-76358105D01*
X162335978Y-76454000D01*
X140791339Y-76454000D01*
X140864881Y-76237353D01*
X140921156Y-75954439D01*
X140940022Y-75666600D01*
X140921156Y-75378761D01*
X140864881Y-75095847D01*
X140772159Y-74822698D01*
X140644578Y-74563989D01*
X140484320Y-74324146D01*
X140463263Y-74300135D01*
X140294127Y-74107272D01*
X140292300Y-74105670D01*
X150714300Y-74105670D01*
X150714301Y-74105676D01*
X150720708Y-74165283D01*
X150771002Y-74300128D01*
X150771006Y-74300135D01*
X150857252Y-74415344D01*
X150857255Y-74415347D01*
X150972464Y-74501593D01*
X150972471Y-74501597D01*
X151107317Y-74551891D01*
X151107316Y-74551891D01*
X151114244Y-74552635D01*
X151166927Y-74558300D01*
X152962672Y-74558299D01*
X153022283Y-74551891D01*
X153157131Y-74501596D01*
X153272346Y-74415346D01*
X153358596Y-74300131D01*
X153407610Y-74168716D01*
X153449481Y-74112784D01*
X153514945Y-74088366D01*
X153583218Y-74103217D01*
X153611473Y-74124369D01*
X153733399Y-74246295D01*
X153830184Y-74314065D01*
X153926965Y-74381832D01*
X153926967Y-74381833D01*
X153926970Y-74381835D01*
X154141137Y-74481703D01*
X154369392Y-74542863D01*
X154545834Y-74558300D01*
X154604799Y-74563459D01*
X154604800Y-74563459D01*
X154604801Y-74563459D01*
X154651148Y-74559404D01*
X154840208Y-74542863D01*
X155068463Y-74481703D01*
X155282630Y-74381835D01*
X155476201Y-74246295D01*
X155643295Y-74079201D01*
X155778835Y-73885630D01*
X155878703Y-73671463D01*
X155939863Y-73443208D01*
X155960459Y-73207800D01*
X155939863Y-72972392D01*
X155878703Y-72744137D01*
X155778835Y-72529971D01*
X155643295Y-72336399D01*
X155643294Y-72336397D01*
X155476202Y-72169306D01*
X155476195Y-72169301D01*
X155282634Y-72033767D01*
X155282630Y-72033765D01*
X155282628Y-72033764D01*
X155068463Y-71933897D01*
X155068459Y-71933896D01*
X155068455Y-71933894D01*
X154840213Y-71872738D01*
X154840203Y-71872736D01*
X154604801Y-71852141D01*
X154604799Y-71852141D01*
X154369396Y-71872736D01*
X154369386Y-71872738D01*
X154141144Y-71933894D01*
X154141135Y-71933898D01*
X153926971Y-72033764D01*
X153926969Y-72033765D01*
X153733400Y-72169303D01*
X153611473Y-72291230D01*
X153550150Y-72324714D01*
X153480458Y-72319730D01*
X153424525Y-72277858D01*
X153407610Y-72246881D01*
X153358597Y-72115471D01*
X153358593Y-72115464D01*
X153272347Y-72000255D01*
X153272344Y-72000252D01*
X153157135Y-71914006D01*
X153157128Y-71914002D01*
X153022282Y-71863708D01*
X153022283Y-71863708D01*
X152962683Y-71857301D01*
X152962681Y-71857300D01*
X152962673Y-71857300D01*
X152962664Y-71857300D01*
X151166929Y-71857300D01*
X151166923Y-71857301D01*
X151107316Y-71863708D01*
X150972471Y-71914002D01*
X150972464Y-71914006D01*
X150857255Y-72000252D01*
X150857252Y-72000255D01*
X150771006Y-72115464D01*
X150771002Y-72115471D01*
X150720708Y-72250317D01*
X150714301Y-72309916D01*
X150714300Y-72309935D01*
X150714300Y-74105670D01*
X140292300Y-74105670D01*
X140077252Y-73917078D01*
X139837413Y-73756823D01*
X139837406Y-73756819D01*
X139578705Y-73629242D01*
X139305560Y-73536521D01*
X139305554Y-73536519D01*
X139305553Y-73536519D01*
X139305551Y-73536518D01*
X139305545Y-73536517D01*
X139022649Y-73480246D01*
X139022639Y-73480244D01*
X138734800Y-73461378D01*
X138446961Y-73480244D01*
X138446955Y-73480245D01*
X138446950Y-73480246D01*
X138164054Y-73536517D01*
X138164039Y-73536521D01*
X137890894Y-73629242D01*
X137632193Y-73756819D01*
X137632186Y-73756823D01*
X137392347Y-73917078D01*
X137175472Y-74107272D01*
X136985278Y-74324147D01*
X136825023Y-74563986D01*
X136825019Y-74563993D01*
X136697442Y-74822694D01*
X136604721Y-75095839D01*
X136604717Y-75095854D01*
X136548446Y-75378750D01*
X136548444Y-75378762D01*
X136529578Y-75666600D01*
X134792448Y-75666600D01*
X134693121Y-75517947D01*
X134502927Y-75301072D01*
X134286052Y-75110878D01*
X134046213Y-74950623D01*
X134046206Y-74950619D01*
X133787505Y-74823042D01*
X133514360Y-74730321D01*
X133514354Y-74730319D01*
X133514353Y-74730319D01*
X133514351Y-74730318D01*
X133514345Y-74730317D01*
X133231449Y-74674046D01*
X133231439Y-74674044D01*
X132943600Y-74655178D01*
X132655761Y-74674044D01*
X132655755Y-74674045D01*
X132655750Y-74674046D01*
X132372854Y-74730317D01*
X132372839Y-74730321D01*
X132099694Y-74823042D01*
X131840993Y-74950619D01*
X131840986Y-74950623D01*
X131601147Y-75110878D01*
X131384272Y-75301072D01*
X131194078Y-75517947D01*
X131033823Y-75757786D01*
X131033819Y-75757793D01*
X130906242Y-76016494D01*
X130813521Y-76289639D01*
X130813517Y-76289654D01*
X130757246Y-76572550D01*
X130757244Y-76572562D01*
X130738378Y-76860400D01*
X90341435Y-76860400D01*
X90344720Y-76856654D01*
X90504978Y-76616811D01*
X90632559Y-76358102D01*
X90725281Y-76084953D01*
X90781556Y-75802039D01*
X90800422Y-75514200D01*
X90781556Y-75226361D01*
X90725281Y-74943447D01*
X90632559Y-74670298D01*
X90577872Y-74559404D01*
X118894592Y-74559404D01*
X118914196Y-74821020D01*
X118914197Y-74821025D01*
X118972576Y-75076802D01*
X118972578Y-75076811D01*
X118972580Y-75076816D01*
X119068432Y-75321043D01*
X119199614Y-75548257D01*
X119331736Y-75713933D01*
X119363198Y-75753385D01*
X119503165Y-75883254D01*
X119555521Y-75931833D01*
X119772296Y-76079628D01*
X119772301Y-76079630D01*
X119772302Y-76079631D01*
X119772303Y-76079632D01*
X119897843Y-76140088D01*
X120008673Y-76193461D01*
X120008674Y-76193461D01*
X120008677Y-76193463D01*
X120259385Y-76270796D01*
X120518818Y-76309900D01*
X120781182Y-76309900D01*
X121040615Y-76270796D01*
X121291323Y-76193463D01*
X121527704Y-76079628D01*
X121744479Y-75931833D01*
X121932050Y-75757793D01*
X121936801Y-75753385D01*
X121936801Y-75753383D01*
X121936805Y-75753381D01*
X122100386Y-75548257D01*
X122231568Y-75321043D01*
X122327420Y-75076816D01*
X122385802Y-74821030D01*
X122405064Y-74563989D01*
X122405408Y-74559404D01*
X122405408Y-74559395D01*
X122385803Y-74297779D01*
X122385802Y-74297774D01*
X122385802Y-74297770D01*
X122327420Y-74041984D01*
X122231568Y-73797757D01*
X122100386Y-73570543D01*
X121936805Y-73365419D01*
X121936804Y-73365418D01*
X121936801Y-73365414D01*
X121744479Y-73186967D01*
X121527704Y-73039172D01*
X121527700Y-73039170D01*
X121527697Y-73039168D01*
X121527696Y-73039167D01*
X121291325Y-72925338D01*
X121291327Y-72925338D01*
X121040623Y-72848006D01*
X121040619Y-72848005D01*
X121040615Y-72848004D01*
X120915823Y-72829194D01*
X120781187Y-72808900D01*
X120781182Y-72808900D01*
X120518818Y-72808900D01*
X120518812Y-72808900D01*
X120357247Y-72833253D01*
X120259385Y-72848004D01*
X120259382Y-72848005D01*
X120259376Y-72848006D01*
X120008673Y-72925338D01*
X119772303Y-73039167D01*
X119772302Y-73039168D01*
X119555520Y-73186967D01*
X119363198Y-73365414D01*
X119199614Y-73570543D01*
X119068432Y-73797756D01*
X118972582Y-74041978D01*
X118972576Y-74041997D01*
X118914197Y-74297774D01*
X118914196Y-74297779D01*
X118894592Y-74559395D01*
X118894592Y-74559404D01*
X90577872Y-74559404D01*
X90504978Y-74411589D01*
X90446551Y-74324147D01*
X90344721Y-74171747D01*
X90154527Y-73954872D01*
X89937652Y-73764678D01*
X89697813Y-73604423D01*
X89697806Y-73604419D01*
X89439105Y-73476842D01*
X89165960Y-73384121D01*
X89165954Y-73384119D01*
X89165953Y-73384119D01*
X89165951Y-73384118D01*
X89165945Y-73384117D01*
X88883049Y-73327846D01*
X88883039Y-73327844D01*
X88595200Y-73308978D01*
X88307361Y-73327844D01*
X88307355Y-73327845D01*
X88307350Y-73327846D01*
X88024454Y-73384117D01*
X88024439Y-73384121D01*
X87751294Y-73476842D01*
X87492593Y-73604419D01*
X87492586Y-73604423D01*
X87252747Y-73764678D01*
X87035872Y-73954872D01*
X86845678Y-74171747D01*
X86685423Y-74411586D01*
X86685419Y-74411593D01*
X86557842Y-74670294D01*
X86465121Y-74943439D01*
X86465117Y-74943454D01*
X86431682Y-75111546D01*
X86408844Y-75226361D01*
X86389978Y-75514200D01*
X53535700Y-75514200D01*
X53535700Y-61061604D01*
X95602792Y-61061604D01*
X95622396Y-61323220D01*
X95622397Y-61323225D01*
X95680776Y-61579002D01*
X95680778Y-61579011D01*
X95680780Y-61579016D01*
X95776632Y-61823243D01*
X95907814Y-62050457D01*
X96038815Y-62214727D01*
X96071398Y-62255585D01*
X96242232Y-62414094D01*
X96263721Y-62434033D01*
X96480496Y-62581828D01*
X96480501Y-62581830D01*
X96480502Y-62581831D01*
X96480503Y-62581832D01*
X96581747Y-62630588D01*
X96716873Y-62695661D01*
X96716874Y-62695661D01*
X96716877Y-62695663D01*
X96967585Y-62772996D01*
X97227018Y-62812100D01*
X97489382Y-62812100D01*
X97748815Y-62772996D01*
X97999523Y-62695663D01*
X98235904Y-62581828D01*
X98452679Y-62434033D01*
X98625517Y-62273663D01*
X98645001Y-62255585D01*
X98645001Y-62255583D01*
X98645005Y-62255581D01*
X98808586Y-62050457D01*
X98939768Y-61823243D01*
X99035620Y-61579016D01*
X99094002Y-61323230D01*
X99094003Y-61323220D01*
X99111705Y-61087000D01*
X110824778Y-61087000D01*
X110841731Y-61345659D01*
X110843644Y-61374837D01*
X110843646Y-61374849D01*
X110899917Y-61657745D01*
X110899921Y-61657760D01*
X110992642Y-61930905D01*
X111120219Y-62189606D01*
X111120223Y-62189613D01*
X111280478Y-62429452D01*
X111470672Y-62646327D01*
X111687547Y-62836521D01*
X111872336Y-62959993D01*
X111927389Y-62996778D01*
X112186098Y-63124359D01*
X112459247Y-63217081D01*
X112742161Y-63273356D01*
X113030000Y-63292222D01*
X113317839Y-63273356D01*
X113600753Y-63217081D01*
X113873902Y-63124359D01*
X114132611Y-62996778D01*
X114372454Y-62836520D01*
X114589327Y-62646327D01*
X114779520Y-62429454D01*
X114939778Y-62189611D01*
X115067359Y-61930902D01*
X115160081Y-61657753D01*
X115216356Y-61374839D01*
X115235222Y-61087000D01*
X115216356Y-60799161D01*
X115160081Y-60516247D01*
X115067359Y-60243098D01*
X114954865Y-60014982D01*
X114939780Y-59984393D01*
X114939776Y-59984386D01*
X114779521Y-59744547D01*
X114589327Y-59527672D01*
X114372452Y-59337478D01*
X114132613Y-59177223D01*
X114132606Y-59177219D01*
X113873905Y-59049642D01*
X113600760Y-58956921D01*
X113600754Y-58956919D01*
X113600753Y-58956919D01*
X113600751Y-58956918D01*
X113600745Y-58956917D01*
X113317849Y-58900646D01*
X113317839Y-58900644D01*
X113030000Y-58881778D01*
X112742161Y-58900644D01*
X112742155Y-58900645D01*
X112742150Y-58900646D01*
X112459254Y-58956917D01*
X112459239Y-58956921D01*
X112186094Y-59049642D01*
X111927393Y-59177219D01*
X111927386Y-59177223D01*
X111687547Y-59337478D01*
X111470672Y-59527672D01*
X111280478Y-59744547D01*
X111120223Y-59984386D01*
X111120219Y-59984393D01*
X110992642Y-60243094D01*
X110899921Y-60516239D01*
X110899917Y-60516254D01*
X110846477Y-60784917D01*
X110843644Y-60799161D01*
X110824778Y-61087000D01*
X99111705Y-61087000D01*
X99113608Y-61061604D01*
X99113608Y-61061595D01*
X99094003Y-60799979D01*
X99094002Y-60799974D01*
X99094002Y-60799970D01*
X99035620Y-60544184D01*
X98939768Y-60299957D01*
X98808586Y-60072743D01*
X98645005Y-59867619D01*
X98645004Y-59867618D01*
X98645001Y-59867614D01*
X98452679Y-59689167D01*
X98382040Y-59641006D01*
X98235904Y-59541372D01*
X98235900Y-59541370D01*
X98235897Y-59541368D01*
X98235896Y-59541367D01*
X97999525Y-59427538D01*
X97999527Y-59427538D01*
X97748823Y-59350206D01*
X97748819Y-59350205D01*
X97748815Y-59350204D01*
X97624023Y-59331394D01*
X97489387Y-59311100D01*
X97489382Y-59311100D01*
X97227018Y-59311100D01*
X97227012Y-59311100D01*
X97065447Y-59335453D01*
X96967585Y-59350204D01*
X96967582Y-59350205D01*
X96967576Y-59350206D01*
X96716873Y-59427538D01*
X96480503Y-59541367D01*
X96480502Y-59541368D01*
X96263720Y-59689167D01*
X96071398Y-59867614D01*
X95907814Y-60072743D01*
X95776632Y-60299956D01*
X95680782Y-60544178D01*
X95680776Y-60544197D01*
X95622397Y-60799974D01*
X95622396Y-60799979D01*
X95602792Y-61061595D01*
X95602792Y-61061604D01*
X53535700Y-61061604D01*
X53535700Y-59855847D01*
X53555385Y-59788808D01*
X53608189Y-59743053D01*
X53648887Y-59732320D01*
X132890593Y-52799571D01*
X132901400Y-52799100D01*
X140176055Y-52799100D01*
X140243094Y-52818785D01*
G37*
%TD.AperFunction*%
M02*
