%TF.GenerationSoftware,KiCad,Pcbnew,8.0.0*%
%TF.CreationDate,2024-10-27T16:20:46-07:00*%
%TF.ProjectId,sled,736c6564-2e6b-4696-9361-645f70636258,rev?*%
%TF.SameCoordinates,Original*%
%TF.FileFunction,Legend,Bot*%
%TF.FilePolarity,Positive*%
%FSLAX46Y46*%
G04 Gerber Fmt 4.6, Leading zero omitted, Abs format (unit mm)*
G04 Created by KiCad (PCBNEW 8.0.0) date 2024-10-27 16:20:46*
%MOMM*%
%LPD*%
G01*
G04 APERTURE LIST*
G04 Aperture macros list*
%AMHorizOval*
0 Thick line with rounded ends*
0 $1 width*
0 $2 $3 position (X,Y) of the first rounded end (center of the circle)*
0 $4 $5 position (X,Y) of the second rounded end (center of the circle)*
0 Add line between two ends*
20,1,$1,$2,$3,$4,$5,0*
0 Add two circle primitives to create the rounded ends*
1,1,$1,$2,$3*
1,1,$1,$4,$5*%
%AMRotRect*
0 Rectangle, with rotation*
0 The origin of the aperture is its center*
0 $1 length*
0 $2 width*
0 $3 Rotation angle, in degrees counterclockwise*
0 Add horizontal line*
21,1,$1,$2,0,0,$3*%
G04 Aperture macros list end*
%ADD10C,0.250000*%
%ADD11C,0.100000*%
%ADD12R,1.700000X1.700000*%
%ADD13O,1.700000X1.700000*%
%ADD14C,3.400000*%
%ADD15C,1.000000*%
%ADD16C,2.500000*%
%ADD17RotRect,1.700000X1.700000X95.000000*%
%ADD18HorizOval,1.700000X0.000000X0.000000X0.000000X0.000000X0*%
G04 APERTURE END LIST*
D10*
X149010983Y-62845050D02*
X149010983Y-62083146D01*
X147677649Y-62559336D02*
X149391935Y-62559336D01*
X149391935Y-62559336D02*
X149582411Y-62464098D01*
X149582411Y-62464098D02*
X149677649Y-62273622D01*
X149677649Y-62273622D02*
X149677649Y-62083146D01*
X149010983Y-61606955D02*
X147677649Y-61226003D01*
X147677649Y-61226003D02*
X148630030Y-60845050D01*
X148630030Y-60845050D02*
X147677649Y-60464098D01*
X147677649Y-60464098D02*
X149010983Y-60083146D01*
X145219666Y-62559336D02*
X145219666Y-61035527D01*
X144457761Y-61797431D02*
X145981571Y-61797431D01*
X145219666Y-60083146D02*
X145219666Y-58559337D01*
X136097112Y-54218768D02*
X136192350Y-54028292D01*
X136192350Y-54028292D02*
X136192350Y-53647339D01*
X136192350Y-53647339D02*
X136097112Y-53456863D01*
X136097112Y-53456863D02*
X135906635Y-53361625D01*
X135906635Y-53361625D02*
X135144731Y-53361625D01*
X135144731Y-53361625D02*
X134954254Y-53456863D01*
X134954254Y-53456863D02*
X134859016Y-53647339D01*
X134859016Y-53647339D02*
X134859016Y-54028292D01*
X134859016Y-54028292D02*
X134954254Y-54218768D01*
X134954254Y-54218768D02*
X135144731Y-54314006D01*
X135144731Y-54314006D02*
X135335207Y-54314006D01*
X135335207Y-54314006D02*
X135525683Y-53361625D01*
X134859016Y-54980673D02*
X134859016Y-56028292D01*
X134859016Y-56028292D02*
X136192350Y-54980673D01*
X136192350Y-54980673D02*
X136192350Y-56028292D01*
X138650333Y-53456863D02*
X138650333Y-54980673D01*
X138650333Y-55933053D02*
X138650333Y-57456863D01*
X139412238Y-56694958D02*
X137888428Y-56694958D01*
X172272888Y-59835901D02*
X172177649Y-59645425D01*
X172177649Y-59645425D02*
X172177649Y-59264473D01*
X172177649Y-59264473D02*
X172272888Y-59073996D01*
X172272888Y-59073996D02*
X172463364Y-58978758D01*
X172463364Y-58978758D02*
X172558602Y-58978758D01*
X172558602Y-58978758D02*
X172749078Y-59073996D01*
X172749078Y-59073996D02*
X172844316Y-59264473D01*
X172844316Y-59264473D02*
X172844316Y-59550187D01*
X172844316Y-59550187D02*
X172939554Y-59740663D01*
X172939554Y-59740663D02*
X173130030Y-59835901D01*
X173130030Y-59835901D02*
X173225268Y-59835901D01*
X173225268Y-59835901D02*
X173415745Y-59740663D01*
X173415745Y-59740663D02*
X173510983Y-59550187D01*
X173510983Y-59550187D02*
X173510983Y-59264473D01*
X173510983Y-59264473D02*
X173415745Y-59073996D01*
X173510983Y-58407329D02*
X173510983Y-57645425D01*
X174177649Y-58121615D02*
X172463364Y-58121615D01*
X172463364Y-58121615D02*
X172272888Y-58026377D01*
X172272888Y-58026377D02*
X172177649Y-57835901D01*
X172177649Y-57835901D02*
X172177649Y-57645425D01*
X172177649Y-56978758D02*
X173510983Y-56978758D01*
X173130030Y-56978758D02*
X173320507Y-56883520D01*
X173320507Y-56883520D02*
X173415745Y-56788282D01*
X173415745Y-56788282D02*
X173510983Y-56597806D01*
X173510983Y-56597806D02*
X173510983Y-56407329D01*
X172177649Y-54883520D02*
X173225268Y-54883520D01*
X173225268Y-54883520D02*
X173415745Y-54978758D01*
X173415745Y-54978758D02*
X173510983Y-55169234D01*
X173510983Y-55169234D02*
X173510983Y-55550187D01*
X173510983Y-55550187D02*
X173415745Y-55740663D01*
X172272888Y-54883520D02*
X172177649Y-55073996D01*
X172177649Y-55073996D02*
X172177649Y-55550187D01*
X172177649Y-55550187D02*
X172272888Y-55740663D01*
X172272888Y-55740663D02*
X172463364Y-55835901D01*
X172463364Y-55835901D02*
X172653840Y-55835901D01*
X172653840Y-55835901D02*
X172844316Y-55740663D01*
X172844316Y-55740663D02*
X172939554Y-55550187D01*
X172939554Y-55550187D02*
X172939554Y-55073996D01*
X172939554Y-55073996D02*
X173034792Y-54883520D01*
X173510983Y-54216853D02*
X173510983Y-53454949D01*
X174177649Y-53931139D02*
X172463364Y-53931139D01*
X172463364Y-53931139D02*
X172272888Y-53835901D01*
X172272888Y-53835901D02*
X172177649Y-53645425D01*
X172177649Y-53645425D02*
X172177649Y-53454949D01*
X169719666Y-57740662D02*
X169719666Y-56216853D01*
X169719666Y-55264472D02*
X169719666Y-53740663D01*
X168957761Y-54502567D02*
X170481571Y-54502567D01*
X102702193Y-67808904D02*
X102702193Y-69427952D01*
X102702193Y-69427952D02*
X102797431Y-69618428D01*
X102797431Y-69618428D02*
X102892669Y-69713666D01*
X102892669Y-69713666D02*
X103083146Y-69808904D01*
X103083146Y-69808904D02*
X103368860Y-69808904D01*
X103368860Y-69808904D02*
X103559336Y-69713666D01*
X102702193Y-69047000D02*
X102892669Y-69142238D01*
X102892669Y-69142238D02*
X103273622Y-69142238D01*
X103273622Y-69142238D02*
X103464098Y-69047000D01*
X103464098Y-69047000D02*
X103559336Y-68951761D01*
X103559336Y-68951761D02*
X103654574Y-68761285D01*
X103654574Y-68761285D02*
X103654574Y-68189857D01*
X103654574Y-68189857D02*
X103559336Y-67999380D01*
X103559336Y-67999380D02*
X103464098Y-67904142D01*
X103464098Y-67904142D02*
X103273622Y-67808904D01*
X103273622Y-67808904D02*
X102892669Y-67808904D01*
X102892669Y-67808904D02*
X102702193Y-67904142D01*
X101749812Y-67808904D02*
X101749812Y-69808904D01*
X101749812Y-67904142D02*
X101559336Y-67808904D01*
X101559336Y-67808904D02*
X101178383Y-67808904D01*
X101178383Y-67808904D02*
X100987907Y-67904142D01*
X100987907Y-67904142D02*
X100892669Y-67999380D01*
X100892669Y-67999380D02*
X100797431Y-68189857D01*
X100797431Y-68189857D02*
X100797431Y-68761285D01*
X100797431Y-68761285D02*
X100892669Y-68951761D01*
X100892669Y-68951761D02*
X100987907Y-69047000D01*
X100987907Y-69047000D02*
X101178383Y-69142238D01*
X101178383Y-69142238D02*
X101559336Y-69142238D01*
X101559336Y-69142238D02*
X101749812Y-69047000D01*
X100035526Y-69047000D02*
X99845050Y-69142238D01*
X99845050Y-69142238D02*
X99464098Y-69142238D01*
X99464098Y-69142238D02*
X99273621Y-69047000D01*
X99273621Y-69047000D02*
X99178383Y-68856523D01*
X99178383Y-68856523D02*
X99178383Y-68761285D01*
X99178383Y-68761285D02*
X99273621Y-68570809D01*
X99273621Y-68570809D02*
X99464098Y-68475571D01*
X99464098Y-68475571D02*
X99749812Y-68475571D01*
X99749812Y-68475571D02*
X99940288Y-68380333D01*
X99940288Y-68380333D02*
X100035526Y-68189857D01*
X100035526Y-68189857D02*
X100035526Y-68094619D01*
X100035526Y-68094619D02*
X99940288Y-67904142D01*
X99940288Y-67904142D02*
X99749812Y-67808904D01*
X99749812Y-67808904D02*
X99464098Y-67808904D01*
X99464098Y-67808904D02*
X99273621Y-67904142D01*
X159197431Y-69347000D02*
X159387907Y-69442238D01*
X159387907Y-69442238D02*
X159768860Y-69442238D01*
X159768860Y-69442238D02*
X159959336Y-69347000D01*
X159959336Y-69347000D02*
X160054574Y-69156523D01*
X160054574Y-69156523D02*
X160054574Y-68394619D01*
X160054574Y-68394619D02*
X159959336Y-68204142D01*
X159959336Y-68204142D02*
X159768860Y-68108904D01*
X159768860Y-68108904D02*
X159387907Y-68108904D01*
X159387907Y-68108904D02*
X159197431Y-68204142D01*
X159197431Y-68204142D02*
X159102193Y-68394619D01*
X159102193Y-68394619D02*
X159102193Y-68585095D01*
X159102193Y-68585095D02*
X160054574Y-68775571D01*
X157387907Y-69442238D02*
X157387907Y-68394619D01*
X157387907Y-68394619D02*
X157483145Y-68204142D01*
X157483145Y-68204142D02*
X157673621Y-68108904D01*
X157673621Y-68108904D02*
X158054574Y-68108904D01*
X158054574Y-68108904D02*
X158245050Y-68204142D01*
X157387907Y-69347000D02*
X157578383Y-69442238D01*
X157578383Y-69442238D02*
X158054574Y-69442238D01*
X158054574Y-69442238D02*
X158245050Y-69347000D01*
X158245050Y-69347000D02*
X158340288Y-69156523D01*
X158340288Y-69156523D02*
X158340288Y-68966047D01*
X158340288Y-68966047D02*
X158245050Y-68775571D01*
X158245050Y-68775571D02*
X158054574Y-68680333D01*
X158054574Y-68680333D02*
X157578383Y-68680333D01*
X157578383Y-68680333D02*
X157387907Y-68585095D01*
X156530764Y-69347000D02*
X156340288Y-69442238D01*
X156340288Y-69442238D02*
X155959336Y-69442238D01*
X155959336Y-69442238D02*
X155768859Y-69347000D01*
X155768859Y-69347000D02*
X155673621Y-69156523D01*
X155673621Y-69156523D02*
X155673621Y-69061285D01*
X155673621Y-69061285D02*
X155768859Y-68870809D01*
X155768859Y-68870809D02*
X155959336Y-68775571D01*
X155959336Y-68775571D02*
X156245050Y-68775571D01*
X156245050Y-68775571D02*
X156435526Y-68680333D01*
X156435526Y-68680333D02*
X156530764Y-68489857D01*
X156530764Y-68489857D02*
X156530764Y-68394619D01*
X156530764Y-68394619D02*
X156435526Y-68204142D01*
X156435526Y-68204142D02*
X156245050Y-68108904D01*
X156245050Y-68108904D02*
X155959336Y-68108904D01*
X155959336Y-68108904D02*
X155768859Y-68204142D01*
X155006954Y-68108904D02*
X154530764Y-69442238D01*
X154054573Y-68108904D02*
X154530764Y-69442238D01*
X154530764Y-69442238D02*
X154721240Y-69918428D01*
X154721240Y-69918428D02*
X154816478Y-70013666D01*
X154816478Y-70013666D02*
X155006954Y-70108904D01*
X153292668Y-69442238D02*
X153292668Y-68108904D01*
X153292668Y-68299380D02*
X153197430Y-68204142D01*
X153197430Y-68204142D02*
X153006954Y-68108904D01*
X153006954Y-68108904D02*
X152721239Y-68108904D01*
X152721239Y-68108904D02*
X152530763Y-68204142D01*
X152530763Y-68204142D02*
X152435525Y-68394619D01*
X152435525Y-68394619D02*
X152435525Y-69442238D01*
X152435525Y-68394619D02*
X152340287Y-68204142D01*
X152340287Y-68204142D02*
X152149811Y-68108904D01*
X152149811Y-68108904D02*
X151864097Y-68108904D01*
X151864097Y-68108904D02*
X151673620Y-68204142D01*
X151673620Y-68204142D02*
X151578382Y-68394619D01*
X151578382Y-68394619D02*
X151578382Y-69442238D01*
X150626001Y-69442238D02*
X150626001Y-68108904D01*
X150626001Y-67442238D02*
X150721239Y-67537476D01*
X150721239Y-67537476D02*
X150626001Y-67632714D01*
X150626001Y-67632714D02*
X150530763Y-67537476D01*
X150530763Y-67537476D02*
X150626001Y-67442238D01*
X150626001Y-67442238D02*
X150626001Y-67632714D01*
X149673620Y-68108904D02*
X149673620Y-69442238D01*
X149673620Y-68299380D02*
X149578382Y-68204142D01*
X149578382Y-68204142D02*
X149387906Y-68108904D01*
X149387906Y-68108904D02*
X149102191Y-68108904D01*
X149102191Y-68108904D02*
X148911715Y-68204142D01*
X148911715Y-68204142D02*
X148816477Y-68394619D01*
X148816477Y-68394619D02*
X148816477Y-69442238D01*
X147864096Y-69442238D02*
X147864096Y-68108904D01*
X147864096Y-67442238D02*
X147959334Y-67537476D01*
X147959334Y-67537476D02*
X147864096Y-67632714D01*
X147864096Y-67632714D02*
X147768858Y-67537476D01*
X147768858Y-67537476D02*
X147864096Y-67442238D01*
X147864096Y-67442238D02*
X147864096Y-67632714D01*
D11*
X52300000Y-57000000D02*
X81100000Y-57000000D01*
X81100000Y-80800000D01*
X52300000Y-80800000D01*
X52300000Y-57000000D01*
G36*
X52300000Y-57000000D02*
G01*
X81100000Y-57000000D01*
X81100000Y-80800000D01*
X52300000Y-80800000D01*
X52300000Y-57000000D01*
G37*
D10*
X141953427Y-82303292D02*
X141920224Y-82682795D01*
X141194421Y-82236888D02*
X141161219Y-82616390D01*
X140567063Y-82851214D02*
X139808057Y-82784810D01*
X140340539Y-82162183D02*
X140191130Y-83869945D01*
X140191130Y-83869945D02*
X140079653Y-84051396D01*
X140079653Y-84051396D02*
X139881601Y-84129671D01*
X139881601Y-84129671D02*
X139691850Y-84113069D01*
X139027720Y-84054966D02*
X139202031Y-82062576D01*
X138173839Y-83980261D02*
X138265145Y-82936628D01*
X138265145Y-82936628D02*
X138376621Y-82755177D01*
X138376621Y-82755177D02*
X138574673Y-82676903D01*
X138574673Y-82676903D02*
X138859300Y-82701804D01*
X138859300Y-82701804D02*
X139040751Y-82813281D01*
X139040751Y-82813281D02*
X139127326Y-82916457D01*
X136474377Y-83735975D02*
X136655828Y-83847452D01*
X136655828Y-83847452D02*
X137035330Y-83880654D01*
X137035330Y-83880654D02*
X137233382Y-83802380D01*
X137233382Y-83802380D02*
X137344859Y-83620929D01*
X137344859Y-83620929D02*
X137411263Y-82861923D01*
X137411263Y-82861923D02*
X137332989Y-82663871D01*
X137332989Y-82663871D02*
X137151538Y-82552395D01*
X137151538Y-82552395D02*
X136772035Y-82519192D01*
X136772035Y-82519192D02*
X136573983Y-82597467D01*
X136573983Y-82597467D02*
X136462506Y-82778918D01*
X136462506Y-82778918D02*
X136445905Y-82968669D01*
X136445905Y-82968669D02*
X137378061Y-83241426D01*
X134400142Y-82311679D02*
X133641137Y-82245274D01*
X133999308Y-83615037D02*
X134148717Y-81907274D01*
X134148717Y-81907274D02*
X134070443Y-81709222D01*
X134070443Y-81709222D02*
X133888992Y-81597746D01*
X133888992Y-81597746D02*
X133699241Y-81581144D01*
X132860799Y-83515430D02*
X132977007Y-82187170D01*
X132943805Y-82566673D02*
X132865530Y-82368621D01*
X132865530Y-82368621D02*
X132778955Y-82265445D01*
X132778955Y-82265445D02*
X132597504Y-82153968D01*
X132597504Y-82153968D02*
X132407753Y-82137367D01*
X131342789Y-83382621D02*
X131540841Y-83304347D01*
X131540841Y-83304347D02*
X131644017Y-83217772D01*
X131644017Y-83217772D02*
X131755494Y-83036321D01*
X131755494Y-83036321D02*
X131805297Y-82467067D01*
X131805297Y-82467067D02*
X131727022Y-82269015D01*
X131727022Y-82269015D02*
X131640447Y-82165838D01*
X131640447Y-82165838D02*
X131458996Y-82054362D01*
X131458996Y-82054362D02*
X131174369Y-82029460D01*
X131174369Y-82029460D02*
X130976317Y-82107735D01*
X130976317Y-82107735D02*
X130873141Y-82194310D01*
X130873141Y-82194310D02*
X130761664Y-82375761D01*
X130761664Y-82375761D02*
X130711861Y-82945015D01*
X130711861Y-82945015D02*
X130790136Y-83143067D01*
X130790136Y-83143067D02*
X130876711Y-83246243D01*
X130876711Y-83246243D02*
X131058162Y-83357720D01*
X131058162Y-83357720D02*
X131342789Y-83382621D01*
X129940985Y-81921553D02*
X129824778Y-83249812D01*
X129924384Y-82111304D02*
X129837809Y-82008128D01*
X129837809Y-82008128D02*
X129656358Y-81896651D01*
X129656358Y-81896651D02*
X129371731Y-81871750D01*
X129371731Y-81871750D02*
X129173679Y-81950024D01*
X129173679Y-81950024D02*
X129062202Y-82131475D01*
X129062202Y-82131475D02*
X128970896Y-83175108D01*
X128422974Y-81788744D02*
X127663969Y-81722340D01*
X128196451Y-81099713D02*
X128047041Y-82807475D01*
X128047041Y-82807475D02*
X127935564Y-82988926D01*
X127935564Y-82988926D02*
X127737512Y-83067200D01*
X127737512Y-83067200D02*
X127547761Y-83050599D01*
X125766455Y-81556329D02*
X125007449Y-81489924D01*
X125365620Y-82859687D02*
X125515030Y-81151924D01*
X125515030Y-81151924D02*
X125436755Y-80953872D01*
X125436755Y-80953872D02*
X125255304Y-80842396D01*
X125255304Y-80842396D02*
X125065553Y-80825795D01*
X123476407Y-82598800D02*
X123657858Y-82710277D01*
X123657858Y-82710277D02*
X124037360Y-82743479D01*
X124037360Y-82743479D02*
X124235412Y-82665205D01*
X124235412Y-82665205D02*
X124346889Y-82483754D01*
X124346889Y-82483754D02*
X124413293Y-81724748D01*
X124413293Y-81724748D02*
X124335019Y-81526696D01*
X124335019Y-81526696D02*
X124153568Y-81415220D01*
X124153568Y-81415220D02*
X123774065Y-81382017D01*
X123774065Y-81382017D02*
X123576013Y-81460292D01*
X123576013Y-81460292D02*
X123464537Y-81641743D01*
X123464537Y-81641743D02*
X123447936Y-81831494D01*
X123447936Y-81831494D02*
X124380091Y-82104251D01*
X122234722Y-82585769D02*
X122432774Y-82507494D01*
X122432774Y-82507494D02*
X122544251Y-82326043D01*
X122544251Y-82326043D02*
X122693661Y-80618281D01*
X121191090Y-82494463D02*
X121389142Y-82416188D01*
X121389142Y-82416188D02*
X121500618Y-82234737D01*
X121500618Y-82234737D02*
X121650028Y-80526975D01*
X118629446Y-82270348D02*
X118827498Y-82192073D01*
X118827498Y-82192073D02*
X118930674Y-82105498D01*
X118930674Y-82105498D02*
X119042151Y-81924047D01*
X119042151Y-81924047D02*
X119091954Y-81354793D01*
X119091954Y-81354793D02*
X119013679Y-81156741D01*
X119013679Y-81156741D02*
X118927104Y-81053565D01*
X118927104Y-81053565D02*
X118745653Y-80942088D01*
X118745653Y-80942088D02*
X118461026Y-80917187D01*
X118461026Y-80917187D02*
X118262974Y-80995461D01*
X118262974Y-80995461D02*
X118159798Y-81082036D01*
X118159798Y-81082036D02*
X118048321Y-81263487D01*
X118048321Y-81263487D02*
X117998518Y-81832741D01*
X117998518Y-81832741D02*
X118076793Y-82030793D01*
X118076793Y-82030793D02*
X118163368Y-82133969D01*
X118163368Y-82133969D02*
X118344819Y-82245446D01*
X118344819Y-82245446D02*
X118629446Y-82270348D01*
X117512269Y-80834181D02*
X116753264Y-80767777D01*
X117111434Y-82137539D02*
X117260844Y-80429777D01*
X117260844Y-80429777D02*
X117182570Y-80231725D01*
X117182570Y-80231725D02*
X117001119Y-80120248D01*
X117001119Y-80120248D02*
X116811368Y-80103647D01*
X116373761Y-80734575D02*
X115614756Y-80668170D01*
X115972926Y-82037933D02*
X116122336Y-80330170D01*
X116122336Y-80330170D02*
X116044062Y-80132118D01*
X116044062Y-80132118D02*
X115862611Y-80020642D01*
X115862611Y-80020642D02*
X115672859Y-80004040D01*
X115103605Y-79954237D02*
X115070403Y-80333740D01*
X114344600Y-79887833D02*
X114311398Y-80267336D01*
%LPC*%
D12*
%TO.C,SW1*%
X221828200Y-57962800D03*
D13*
X224368200Y-57962800D03*
X226908200Y-57962800D03*
X229448200Y-57962800D03*
%TD*%
D12*
%TO.C,J11*%
X152064800Y-73207800D03*
D13*
X154604800Y-73207800D03*
%TD*%
D14*
%TO.C,H7*%
X132943600Y-76860400D03*
%TD*%
D15*
%TO.C,H14*%
X236400000Y-68800000D03*
%TD*%
D12*
%TO.C,J2*%
X125196600Y-70332600D03*
D13*
X127736600Y-70332600D03*
X130276600Y-70332600D03*
X132816600Y-70332600D03*
%TD*%
D12*
%TO.C,J1*%
X122915600Y-63672800D03*
D13*
X125455600Y-63672800D03*
X127995600Y-63672800D03*
X130535600Y-63672800D03*
X133075600Y-63672800D03*
%TD*%
D12*
%TO.C,J10*%
X212115400Y-54249400D03*
D13*
X212115400Y-56789400D03*
%TD*%
D12*
%TO.C,J5*%
X152039400Y-66070400D03*
D13*
X154579400Y-66070400D03*
%TD*%
D16*
%TO.C,H1*%
X97358200Y-61061600D03*
%TD*%
D14*
%TO.C,H10*%
X138734800Y-75666600D03*
%TD*%
D12*
%TO.C,BT3*%
X141000000Y-56686200D03*
D13*
X141000000Y-54146200D03*
%TD*%
D12*
%TO.C,J4*%
X148902000Y-55346600D03*
D13*
X152302000Y-55346600D03*
X155702000Y-55346600D03*
X159102000Y-55346600D03*
%TD*%
D12*
%TO.C,BT1*%
X203454000Y-61742400D03*
D13*
X203454000Y-64282400D03*
%TD*%
D12*
%TO.C,J9*%
X192000000Y-54279800D03*
D13*
X192000000Y-56819800D03*
%TD*%
D14*
%TO.C,H5*%
X88595200Y-75514200D03*
%TD*%
D12*
%TO.C,BT2*%
X145000000Y-56775000D03*
D13*
X145000000Y-54235000D03*
%TD*%
D14*
%TO.C,H9*%
X164490400Y-62484000D03*
%TD*%
D12*
%TO.C,J8*%
X192100200Y-61666200D03*
D13*
X192100200Y-64206200D03*
%TD*%
D14*
%TO.C,H11*%
X183997600Y-59918600D03*
%TD*%
%TO.C,H13*%
X164541200Y-76454000D03*
%TD*%
%TO.C,H12*%
X184200800Y-76073000D03*
%TD*%
D12*
%TO.C,SW2*%
X221777400Y-54244400D03*
D13*
X224317400Y-54244400D03*
X226857400Y-54244400D03*
X229397400Y-54244400D03*
%TD*%
D16*
%TO.C,H2*%
X120650000Y-74559400D03*
%TD*%
D14*
%TO.C,H8*%
X138785600Y-59867800D03*
%TD*%
D12*
%TO.C,BT4*%
X167182800Y-56769000D03*
D13*
X167182800Y-54229000D03*
%TD*%
D16*
%TO.C,H3*%
X163000000Y-55092600D03*
%TD*%
D14*
%TO.C,H6*%
X113030000Y-61087000D03*
%TD*%
D16*
%TO.C,H4*%
X188500000Y-55118000D03*
%TD*%
D17*
%TO.C,J7*%
X118186200Y-63474600D03*
D18*
X120716536Y-63253224D03*
%TD*%
%LPD*%
M02*
